<svg width="260" height="123" viewBox="0 0 260 123" fill="none" xmlns="http://www.w3.org/2000/svg">
<path fill-rule="evenodd" clip-rule="evenodd" d="M77.102 11.1646C59.3812 19.5724 41.9885 32.3618 23.3764 50.6699C20.7612 53.2426 18.3938 55.6493 18.1154 56.0185C17.6515 56.6342 17.7135 56.6539 18.8625 56.2555C19.625 55.9912 20.8543 55.0604 22.0017 53.8784C33.0315 42.515 48.5573 29.6292 60.7386 21.7277C72.0349 14.4005 80.7555 10.2299 92.9465 6.32508C104.747 2.54516 113.046 1.20649 125.665 1.048C135.733 0.921258 144.636 1.69849 155.024 3.61087C160.039 4.53411 165.53 5.29179 164.86 4.96812C163.876 4.49293 152.766 2.48463 146.276 1.60902C128.614 -0.773971 114.19 -0.263338 99.3309 3.27127C94.4908 4.4226 81.8547 8.90959 77.102 11.1646ZM76.2615 16.8442C75.7689 17.1922 76.8092 17.0203 79.2732 16.3466C83.7413 15.125 88.96 14.3643 92.7284 14.3844C100.075 14.4242 110.518 16.4576 119.952 19.685C124.055 21.0887 124.504 21.1631 125.518 20.6114C126.124 20.2812 127.685 19.4334 128.985 18.7274C130.614 17.8428 135.955 15.8469 146.148 12.313C154.286 9.49134 160.914 7.09297 160.876 6.9836C160.797 6.75451 152.296 8.99918 145.09 11.1524C139.767 12.7427 130.604 16.4734 126.22 18.8355L123.489 20.3073L117.506 18.3752C105.008 14.3388 94.7578 12.9075 85.7435 13.9393C82.6736 14.2906 77.7352 15.8035 76.2615 16.8442ZM67.1544 21.7295C61.9019 24.9318 55.8365 32.9271 50.3991 43.8157C47.6657 49.2898 48.2242 48.7463 52.7483 41.5304C59.5575 30.6689 63.1312 26.217 68.4092 22.0186C69.6607 21.0231 70.6656 20.1528 70.642 20.0846C70.5614 19.8522 69.1147 20.5343 67.1544 21.7295ZM92.1524 21.2696C89.2722 23.3999 88.1219 25.9545 89.2297 27.7613C89.9846 28.9933 90.4721 29.0184 90.0509 27.8037C89.6182 26.5555 90.4522 24.6445 92.1868 22.9095C93.1836 21.9124 94.0583 21.4237 96.1415 20.6999C99.3311 19.5918 101.755 19.6588 105.404 20.9563L107.759 21.7938L105.935 20.855C101.203 18.4198 95.7856 18.583 92.1524 21.2696ZM94.5862 28.0993C96.4987 29.1933 99.2656 29.2073 104.846 28.1502C106.714 27.7969 108.892 27.5618 109.686 27.6285C111.028 27.7409 111.443 27.598 115.517 25.6223C117.929 24.4522 120 23.2932 120.12 23.0459C120.585 22.0879 118.842 22.6187 114.4 24.7891C110.362 26.7614 109.709 26.9996 108.872 26.8062C107.995 26.604 105.675 26.8925 101.75 27.6922C99.6183 28.1263 96.7696 28.1927 95.0611 27.8484L93.6515 27.5643L94.5862 28.0993ZM3.78255 63.3297C3.332 63.7665 3.50432 63.7805 4.66065 63.401C7.66969 62.4128 16.6658 60.4751 26.1757 58.7669C37.147 56.7962 39.958 56.181 49.6786 53.623C60.8366 50.6867 72.4576 47.0267 79.1782 44.3321C86.5501 41.3766 86.1838 41.5563 96.5151 35.824C105.971 30.5777 107.105 29.8766 106.686 29.5358C106.152 29.1009 104.345 29.9487 97.1448 34.0097C93.2914 36.1834 88.6355 38.7316 86.7983 39.6724C82.0495 42.1037 68.2217 47.1859 59.7181 49.625C43.1472 54.3781 37.3834 55.7211 21.4182 58.5509C13.2586 59.9971 4.87707 62.2683 3.78255 63.3297ZM138.019 17.1407C137.963 17.3909 138.559 17.5034 139.477 17.4154C148.747 16.5268 154.725 17.5678 162.472 21.4207C164.943 22.6494 166.032 23.0699 165.071 22.4238C160.76 19.5254 154.378 17.1652 148.997 16.4792C144.627 15.9221 138.205 16.309 138.019 17.1407ZM3.70398 66.1544C3.09105 66.6598 2.5397 67.1766 2.47853 67.3027C2.41736 67.4288 3.84817 67.0316 5.65832 66.4201C9.64396 65.0743 11.6185 65.1791 15.3238 66.9328C17.6376 68.0278 17.6709 68.032 16.1548 67.0325C11.7664 64.1395 6.59053 63.7745 3.70398 66.1544ZM133.987 22.8904C127.493 26.8763 123.613 33.3861 122.442 42.2612C122.005 45.5755 122.114 51.0912 122.69 54.7257C123.303 58.5943 126.67 68.0112 128.753 71.6803C129.668 73.2928 130.369 74.7118 130.31 74.8339C130.251 74.9559 128.692 75.2264 126.847 75.4354C125.001 75.644 119.572 76.2579 114.781 76.7994C100.437 78.4207 87.48 80.6964 71.9359 84.3247C64.255 86.1177 48.2658 90.2507 46.7103 90.8454C46.1413 91.0629 50.0396 90.4558 55.3729 89.4962C85.7872 84.0234 113.652 81.4881 135.077 82.244C136.741 82.3028 138.205 82.3153 138.33 82.2719C138.456 82.2285 137.945 81.3522 137.195 80.3241C134.006 75.953 131.899 71.8271 129.799 65.8434L127.777 60.0836L126.857 60.4008C125.958 60.711 125.921 60.6734 125.256 58.7554C123.723 54.3337 123.154 47.7619 123.839 42.4014C125.638 28.3184 136.138 19.3829 148.878 21.0925C152.953 21.6391 156.334 22.8675 160.746 25.4035C162.993 26.6951 164.891 27.7313 164.964 27.7062C165.349 27.5725 158.71 23.5679 156.486 22.5929C148.242 18.9785 140.188 19.0851 133.987 22.8904ZM4.0035 68.7438C4.15463 69.1279 4.26137 69.1797 4.27564 68.8761C4.28856 68.6012 4.17646 68.3167 4.02694 68.2442C3.87742 68.1716 3.86691 68.3963 4.0035 68.7438ZM8.60701 69.9883C9.63275 75.5866 9.94405 76.6962 10.394 76.3518C10.6997 76.1173 10.5264 75.0047 9.7346 72.1278C8.40217 67.2851 7.95715 66.4402 8.60701 69.9883ZM4.71967 69.8068C4.811 70.067 5.78499 71.9071 6.8839 73.8957C7.98281 75.8844 8.92504 77.6328 8.97764 77.7813C9.03058 77.9297 9.19491 77.9023 9.34317 77.7205C9.68843 77.2966 8.45669 74.7801 6.44536 71.7999C4.88794 69.4926 4.418 68.9497 4.71967 69.8068ZM1.86158 72.2828C1.88076 72.3889 3.11662 74.0551 4.60828 75.9858C6.09984 77.9163 7.28722 79.5636 7.24735 79.6464C7.20704 79.7289 6.3378 79.5275 5.31602 79.1984C4.2939 78.8694 2.70485 78.365 1.78476 78.0774L0.11154 77.555L2.19028 78.803C3.33344 79.4898 4.31643 79.9533 4.37476 79.8331C4.4332 79.7132 5.24629 79.852 6.18175 80.1417C8.3432 80.8115 8.64578 80.3001 7.19184 78.4349C6.59009 77.6631 6.01039 76.7971 5.90285 76.5107C5.71204 76.0014 1.79297 71.9012 1.86158 72.2828ZM12.4607 73.0097L12.4448 77.061L13.8847 78.3433C14.6765 79.0484 15.3705 79.5309 15.4261 79.4157C15.482 79.3004 15.149 78.9138 14.6857 78.5563C13.893 77.9448 13.8158 77.6617 13.3657 73.7C13.103 71.3863 12.7953 69.3728 12.6822 69.2259C12.5694 69.0788 12.4694 70.7817 12.4607 73.0097ZM33.0312 63.4132C32.0401 64.2034 30.0872 66.8874 29.5031 68.2625C29.1858 69.0091 29.2241 69.2352 29.7181 69.5341C30.2428 69.8516 30.4424 69.6677 31.2909 68.0859C33.1952 64.5357 35.677 62.5637 38.3818 62.4516C39.4361 62.4079 41.457 61.8931 43.626 61.1152L47.1547 59.8495L42.0361 60.7531C36.413 61.7454 34.3633 62.3511 33.0312 63.4132ZM36.9066 63.8618C36.4676 64.4194 35.8287 65.6573 35.4876 66.6129C34.8924 68.2781 34.901 68.3763 35.689 68.9843C36.5896 69.6791 37.0043 69.747 36.4695 69.1123C36.2716 68.8774 36.6305 67.6456 37.3303 66.158C38.8806 62.8617 38.6556 61.6411 36.9066 63.8618ZM142.066 27.027C140.836 27.7685 137.207 30.9598 137.47 31.0681C137.535 31.0946 138.785 30.4343 140.247 29.6007C141.71 28.767 144.486 27.5359 146.416 26.865C149.403 25.8268 150.27 25.6655 152.225 25.7825C158.139 26.1373 164.419 28.9588 169.73 33.6476C171.842 35.5119 172.292 35.6043 170.395 33.7842C166.55 30.0952 159.846 26.3262 155.504 25.4124C150.719 24.405 145.343 25.0509 142.066 27.027ZM17.1159 71.4966C17.3597 71.8077 17.0036 72.7115 16.0201 74.2765C14.9852 75.9237 14.6416 76.8224 14.8346 77.3793C15.2682 78.6298 15.6985 78.1247 16.7188 75.1683C17.2439 73.6465 17.8395 72.4385 18.0421 72.4837C18.618 72.6126 18.2857 72.0355 17.4819 71.5106C17.0094 71.2023 16.881 71.1974 17.1159 71.4966ZM59.7448 58.346C62.253 58.6262 68.823 56.9778 68.5329 56.141C68.3269 55.5467 67.4108 55.65 63.486 56.711C61.8848 57.144 59.9496 57.64 59.1855 57.8132L57.7963 58.1284L59.7448 58.346ZM19.915 74.7772C20.6646 75.7334 21.3181 76.6308 21.367 76.7716C21.4577 77.0334 20.8004 77.5622 17.8275 79.6194L16.1403 80.7865L16.966 82.6624C17.74 84.4205 18.7809 85.4012 18.6446 84.2432C18.5967 83.8357 19.0289 83.7998 20.6475 84.0774C21.7828 84.2724 23.1583 84.3837 23.7048 84.325C24.4091 84.2494 24.7704 84.4272 24.9471 84.9369C25.4004 86.2442 25.932 90.145 25.6691 90.2362C25.5274 90.2853 23.771 89.3653 21.7661 88.1921L18.1213 86.0585L17.9431 87.7379C17.8453 88.6616 17.8778 89.6218 18.0153 89.8716C18.1529 90.1214 19.6385 91.6294 21.3163 93.2229C22.994 94.8164 24.226 95.916 24.0541 95.6665C22.5249 93.4482 19.8035 90.0946 19.6676 90.2612C19.5743 90.3756 19.3459 90.0315 19.1602 89.4957C18.9744 88.9599 18.9593 88.5523 19.1262 88.5896C19.2935 88.6267 19.443 88.4411 19.4585 88.1769C19.486 87.7201 19.7863 87.8418 22.0707 89.2359C22.3938 89.4329 23.3808 89.8498 24.2646 90.1623L25.8711 90.73L25.7794 92.2083C25.6273 94.6569 24.9128 96.8651 23.7708 98.4172C22.5027 100.14 22.4658 100.163 22.002 99.4688C21.7342 99.0682 21.7011 99.1261 21.8683 99.7024C22.0702 100.399 21.9242 100.526 20.2512 101.106C18.0701 101.862 18.2682 102.175 17.0767 96.0872C16.3086 92.1623 16.3062 91.9294 17.0332 91.8234C17.6658 91.7311 17.7311 91.5879 17.4011 91.0152C17.1129 90.5145 16.6881 90.3763 15.89 90.5238C15.2797 90.6361 14.7614 90.7585 14.7381 90.795C14.7148 90.8316 15.4099 93.2719 16.2828 96.2175C17.8346 101.455 17.8524 101.574 17.0899 101.599C16.661 101.613 15.8451 101.498 15.2766 101.345C13.1024 100.755 13.1562 100.962 15.4384 101.971C16.7409 102.547 18.3054 103.048 18.9147 103.084C20.018 103.149 20.7601 103.825 19.69 103.79C19.3808 103.78 15.9023 104.808 11.9594 106.074C4.55179 108.453 5.08622 108.457 14.4878 106.093C16.762 105.521 20.2584 104.666 22.2577 104.192C25.3441 103.462 26.0423 103.193 26.8844 102.41L27.8761 101.489L26.5288 101.925L25.1815 102.361L26.2789 101.204C27.6322 99.7785 28.3272 98.5511 28.9828 96.4303C29.606 94.4126 29.526 94.144 28.4161 94.5288C27.7376 94.7641 27.5358 94.6868 27.5176 94.1847C27.3244 88.8928 27.2174 88.2447 25.921 84.5303C25.183 82.4158 24.2123 80.1388 23.7639 79.4701C23.3152 78.8014 22.6185 77.6942 22.2153 77.0098C21.1875 75.2652 19.9471 73.774 19.1927 73.3766C18.7504 73.1436 18.9744 73.5778 19.915 74.7772ZM141.015 31.7386C141.195 32.3916 149.24 47.9165 149.757 48.6078C150.078 49.0374 150.364 49.1265 150.578 48.8634C150.833 48.5478 150.11 47.0058 147.296 41.8646C144.195 36.1982 140.684 30.5393 141.015 31.7386ZM33.6466 69.4875C34.1836 69.9775 36.193 71.3294 39.4716 73.406C42.1872 75.1264 45.8845 76.1752 45.5193 75.1217C45.4571 74.9424 44.8632 74.7171 44.1995 74.6213C42.4137 74.363 39.7346 73.1414 36.7467 71.2225C33.7954 69.3268 32.9555 68.8568 33.6466 69.4875ZM9.22047 78.204C8.44072 78.8842 9.15291 79.3263 10.2076 78.8168C11.0217 78.4236 11.617 78.4334 12.7344 78.859C14.2315 79.429 14.0183 79.0193 12.3346 78.0906C11.7369 77.7605 11.1948 77.7181 10.8516 77.9742C10.5543 78.196 10.2551 78.217 10.1871 78.0206C10.0563 77.6434 9.80957 77.6903 9.22047 78.204ZM150.284 37.947C151.491 45.6043 151.729 47.5903 151.285 46.3103C151.2 46.0652 151.074 45.9821 151.004 46.1262C150.934 46.27 151.153 46.6434 151.492 46.9558C152.124 47.5392 152.985 47.4774 153.128 46.8382C153.383 45.695 149.595 29.2881 149.114 29.4548C149.026 29.4854 149.552 33.3071 150.284 37.947ZM13.7684 81.2384C15.6633 84.0839 16.3085 87.0837 15.3867 88.7651C14.8254 89.7892 14.0979 89.7275 12.4706 88.5185C11.1203 87.5154 11.0555 87.6113 9.39607 93.0682C8.69581 95.3715 8.32779 96.9205 8.57819 96.5104C10.7742 92.9156 11.9245 90.7327 12.0544 89.9145L12.2088 88.9445L13.4734 89.612C16.3367 91.1238 18.0094 88.6973 16.7024 84.9274C16.1436 83.3158 14.4119 80.7878 13.3746 80.0693C12.7501 79.6369 12.7995 79.7839 13.7684 81.2384ZM2.86588 84.4567C4.2752 84.7972 5.30603 84.8174 9.18331 84.5799C9.70231 84.5479 9.75061 84.3285 9.43549 83.4326C9.16547 82.6656 9.00475 82.4992 8.91252 82.8912C8.80103 83.3659 8.28644 83.4949 5.73004 83.6892C4.05254 83.8167 2.3541 83.953 1.9554 83.9916C1.55671 84.0302 1.96644 84.2395 2.86588 84.4567ZM23.4366 80.8914C24.1822 82.6627 24.569 83.9156 24.366 83.9016C22.4298 83.769 17.7931 82.6708 17.6699 82.3157C17.5831 82.0652 18.0489 81.3428 18.7055 80.7105C19.3622 80.0783 20.2483 79.1094 20.675 78.5576C21.1018 78.0058 21.6107 77.6226 21.8055 77.706C22.0004 77.7894 22.7345 79.2227 23.4366 80.8914ZM135.843 38.177C136.012 38.4274 138.534 41.7364 141.446 45.5304C144.358 49.3244 146.696 52.5228 146.64 52.6377C146.584 52.753 143.719 51.9936 140.273 50.9497C132.803 48.6869 132.454 48.6091 134.292 49.6168C136.047 50.5786 148.014 57.2699 148.405 57.5075C148.56 57.6023 148.655 56.5995 148.615 55.2793L148.543 52.8786L144.789 48.3083C142.724 45.7947 141.069 43.6671 141.111 43.5803C141.154 43.4937 142.855 45.1671 144.893 47.2993C148.988 51.5849 148.872 51.4776 149.043 51.1246C149.11 50.9864 146.098 47.9139 142.35 44.2974C138.602 40.6808 135.673 37.9267 135.843 38.177ZM42.3011 71.6656C44.2169 73.3437 47.8124 75.0703 50.5706 75.6362C52.8662 76.1074 62.778 76.4204 62.9686 76.028C63.0004 75.9619 60.255 75.6426 56.8675 75.3177C49.2944 74.5917 46.4214 73.942 44.0104 72.4098C41.4253 70.7667 41.1266 70.6365 42.3011 71.6656ZM156.842 39.797L156.474 48.0686L157.873 48.9597C158.642 49.4498 159.825 50.4449 160.502 51.1712C161.179 51.8972 161.761 52.4251 161.796 52.3445C162.297 51.1877 163.126 48.1175 162.989 47.9251C162.89 47.7854 163.31 46.6711 163.924 45.4489C164.538 44.2272 165.442 42.1677 165.932 40.8722L166.824 38.5171L168.792 40.8454C170.972 43.4244 173.506 47.1429 173.331 47.505C173.269 47.6333 170.978 49.2362 168.242 51.0668L163.266 54.3954L164.651 58.0048C165.413 59.99 166.102 61.649 166.183 61.6919C166.264 61.7347 168.59 61.5691 171.353 61.324C174.117 61.079 177.016 60.8295 177.796 60.7694L179.215 60.6609L179.754 62.8596C180.442 65.6639 181.063 71.5777 180.682 71.7096C180.522 71.7649 177.203 70.0386 173.304 67.873C166.994 64.3678 166.223 64.0291 166.278 64.7855C166.37 66.046 166.022 68.2541 165.564 69.3183C165.162 70.2534 165.17 70.2624 171.86 76.8153L178.558 83.3758L177.735 84.7836C176.819 86.3508 174.435 89.227 173.891 89.421C173.686 89.4942 171.736 86.0292 169.174 81.038C166.773 76.3587 164.636 72.2803 164.425 71.9754C164.14 71.5643 163.855 71.5432 163.319 71.8939C162.922 72.1541 161.92 72.3682 161.092 72.3696L159.588 72.3725L159.793 73.4725C159.907 74.0773 161.16 78.4655 162.58 83.2239C163.999 87.9825 165.142 91.9106 165.119 91.9534C165.025 92.1246 158.016 91.6928 157.624 91.4919C157.365 91.3583 157.373 87.5538 157.647 81.5064C158.089 71.76 158.088 71.7356 157.19 71.1748C156.696 70.8657 155.583 69.9107 154.718 69.0521L153.145 67.4915L150.975 73.7217C149.781 77.1484 148.434 81.0073 147.983 82.2972L147.162 84.6425L148.151 83.1836C148.696 82.3812 150.442 79.7036 152.033 77.2332C153.623 74.7631 154.99 72.7737 155.069 72.8118C155.148 72.8502 155.382 74.7571 155.588 77.0492C155.794 79.3409 156.196 83.4257 156.48 86.1266C156.99 90.9661 156.984 91.0403 156.082 91.2893C155.579 91.4279 152.607 91.4522 149.479 91.3432C113.98 90.1048 72.2474 92.8376 42.887 98.3237C37.3318 99.3618 27.2097 102.34 26.8718 103.036C26.7854 103.215 26.9624 103.275 27.2658 103.17C28.5205 102.735 41.462 100.231 48.219 99.116C106.365 89.5205 164.676 92.6428 206.73 107.603C216.489 111.075 227.232 116.431 233.89 121.145C235.461 122.256 236.695 123.022 236.634 122.846C236.376 122.101 233.755 119.048 231.804 117.218C230.647 116.133 228.072 114.067 226.083 112.628C221.389 109.232 221.498 109.333 222.902 109.667C228.984 111.115 237.318 114.027 243.197 116.759C247.129 118.586 246.992 118.349 242.457 115.48C236.589 111.767 226.117 107.086 212.363 102.028C210.125 101.206 211.054 101.21 217.479 102.055C223.44 102.838 227.791 103.621 231.76 104.624C235.675 105.613 234.794 105.109 229.36 103.25C217.544 99.2068 198.1 95.1667 183.553 93.7315C179.871 93.3682 178.686 93.007 179.853 92.6024C180.748 92.2923 182.792 90.1807 184.152 88.1633C187.6 83.0445 188.915 75.556 187.889 66.8866C187.612 64.5405 187.027 62.4325 185.16 57.0447C182.531 49.4603 180.626 45.7706 176.79 40.8306C174.601 38.0124 172.137 35.2462 172.024 35.4803C171.982 35.5655 172.745 36.5286 173.719 37.62C174.693 38.7115 175.995 40.3146 176.612 41.1822L177.735 42.7598L175.402 43.5688C173.48 44.2351 172.997 44.2869 172.662 43.863C171.641 42.5696 168.599 39.3518 168.327 39.2779C168.161 39.2326 167.781 38.8584 167.484 38.4464C166.854 37.5732 161.63 33.5091 160.939 33.3547C160.682 33.2969 160.936 33.5824 161.506 33.9886C163.309 35.2754 165.847 37.5294 166.005 37.9845C166.089 38.2257 164.973 40.2329 163.525 42.4456C162.077 44.6579 160.578 47.0639 160.193 47.7922C159.569 48.975 159.428 49.0762 158.873 48.7406C158.351 48.4241 158.263 47.6971 158.318 44.1404C158.385 39.7317 157.792 31.3139 157.423 31.4481C157.306 31.4906 157.045 35.2479 156.842 39.797ZM159.22 32.4614C159.245 32.5307 159.599 32.7028 160.009 32.8438C160.683 33.0756 160.691 33.0599 160.091 32.6736C159.461 32.2679 159.125 32.1862 159.22 32.4614ZM6.26962 88.6145C5.31905 89.8901 4.61034 90.9675 4.69467 91.0087C4.92244 91.1189 7.98303 88.8769 8.85676 87.96C9.71147 87.0627 9.51039 85.708 8.57639 86.0708C8.25886 86.1944 7.22053 87.3389 6.26962 88.6145ZM179.513 31.3553C190.572 40.3238 199.129 53.0335 201.899 64.6038C202.438 66.8548 202.951 69.7678 203.039 71.0768L203.198 73.4569L199.13 74.861C196.893 75.6333 195.28 76.3188 195.546 76.3842C196.076 76.5149 204.369 76.3787 205.922 76.2136C206.986 76.1007 207.062 75.6337 206.621 71.9279C205.01 58.3946 194.883 42.5088 181.238 32.1087C176.903 28.8044 175.743 28.2976 179.513 31.3553ZM12.5176 92.21C12.4432 93.3871 13.2432 99.0505 13.5012 99.1757C13.6089 99.2279 13.6843 97.5915 13.6694 95.5388C13.6482 92.6651 13.5194 91.7477 13.1086 91.5484C12.6983 91.3494 12.5623 91.5014 12.5176 92.21ZM190.207 32.0209C189.62 33.2311 190.169 35.077 191.028 34.7793C191.352 34.667 191.649 34.185 191.687 33.708C191.773 32.6238 192.784 32.0897 195.291 31.8036C197.291 31.5752 204.736 31.9676 206.195 32.3782C206.926 32.5842 206.782 32.6893 204.85 33.3595L202.685 34.1103L205.153 34.3783C206.889 34.5668 208.126 34.4711 209.324 34.0556C212.124 33.0849 216.353 34.0941 216.972 35.8807C217.138 36.3586 217.54 36.3945 218.939 36.0552C220.95 35.5674 222.845 36.2242 223.39 37.5981C223.621 38.1804 224.621 38.7895 226.827 39.691C228.538 40.3905 230.927 41.546 232.136 42.2586C233.345 42.9717 234.489 43.5592 234.679 43.5644C234.868 43.5696 235.31 43.2017 235.66 42.7471C236.878 41.1685 235.662 39.7424 231.427 37.7826C223.584 34.1536 216.502 32.1595 207.643 31.0864C200.598 30.2332 195.168 30.0741 192.576 30.645C190.923 31.009 190.609 31.1913 190.207 32.0209ZM17.5131 93.3448C17.7184 93.6344 18.6509 94.9982 19.5852 96.3759C20.5197 97.7531 21.3289 98.7884 21.3833 98.6762C21.4715 98.495 20.0322 95.69 18.6397 93.3289C18.3609 92.8565 17.9125 92.5508 17.6376 92.6461C17.3219 92.7555 17.2763 93.0107 17.5131 93.3448ZM143.015 53.0177C144.832 53.6059 145.255 53.8647 144.815 54.1194C144.448 54.332 143.511 54.0799 142.229 53.4237C141.123 52.8581 140.313 52.3622 140.429 52.3221C140.545 52.2819 141.708 52.5948 143.015 53.0177ZM150.414 50.1258C148.538 52.2185 148.592 57.662 150.533 62.1221C153.494 68.9257 158.091 72.611 161.949 71.2734C163.451 70.7528 163.637 70.5611 164.371 68.7877C165.459 66.1559 165.314 63.5852 163.84 59.3786C161.794 53.5384 158.015 49.3358 154.316 48.7853C152.994 48.5887 151.256 49.1856 150.414 50.1258ZM154.939 50.3655C155.404 50.4706 155.363 50.5273 154.769 50.6031C154.028 50.6982 154.06 50.7527 155.407 51.6946C161.289 55.8073 164.585 68.6735 160.151 70.211C158.623 70.7406 157.138 70.117 155.122 68.1C150.27 63.2434 148.14 53.8465 151.289 51.1829C151.948 50.6253 154.028 50.1592 154.939 50.3655ZM199.075 42.503C207.87 49.0415 211.151 49.7534 221.923 47.4586C227.312 46.3103 233.45 44.5103 233.314 44.118C233.083 43.4528 222.295 39.9716 221.598 40.3378C220.604 40.8607 219.553 40.8191 218.293 40.2075C216.992 39.5765 216.591 39.5644 214.952 40.1067C212.862 40.7974 210.016 40.4639 208.586 39.3604C207.96 38.8776 206.595 38.7541 202.691 38.828C199.897 38.8808 196.986 39.0197 196.222 39.1365L194.834 39.3493L199.075 42.503ZM135.005 60.9426C135.351 61.047 138.475 61.6718 141.949 62.3309C145.423 62.9904 148.298 63.6307 148.339 63.7536C148.38 63.877 146.468 66.3382 144.09 69.2232C141.712 72.1082 139.8 74.4868 139.842 74.5087C139.884 74.5308 142.649 72.7064 145.987 70.4544C151.783 66.5437 152.04 66.3258 151.71 65.5939C151.521 65.1722 150.839 63.6395 150.196 62.1874L149.026 59.547L142.251 60.1124C138.524 60.4232 135.228 60.6945 134.927 60.7152C134.439 60.7487 134.448 60.7741 135.005 60.9426ZM176.971 54.2915C178.115 56.8974 179.043 59.3051 179.032 59.6419C179.015 60.1452 177.87 60.0375 172.593 59.0372C169.062 58.3678 166.165 57.6975 166.156 57.5476C166.146 57.3978 167.858 55.1862 169.96 52.6328L173.782 47.9905L174.336 48.772C174.64 49.2018 175.826 51.6855 176.971 54.2915ZM174.959 70.6101L180.874 72.407L180.71 74.6288C180.522 77.1839 179.172 82.4774 178.676 82.6055C178.391 82.6794 167.909 69.4062 167.639 68.6296C167.587 68.4785 167.881 68.458 168.294 68.5841C168.706 68.7104 171.706 69.6221 174.959 70.6101ZM255.747 38.5885C255.814 38.7831 255.716 38.9083 255.527 38.8661C255.339 38.824 252.875 40.16 250.051 41.8354C237.441 49.3177 227.212 53.2628 214.762 55.4463C212.627 55.8205 210.923 56.2505 210.975 56.4017C211.199 57.0468 223.29 62.5615 226.226 63.3569C238.395 66.6551 247.842 64.1701 257.12 55.2298C258.474 53.9255 259.507 52.8223 259.417 52.7783C259.327 52.7347 258.029 53.4953 256.533 54.4692C252.866 56.8555 246.431 59.1707 243.41 59.1908C240.491 59.2099 237.703 58.4748 235.719 57.1624L234.009 56.031L236.548 54.8867C241.706 52.5619 246.588 49.3201 250.548 45.5893C252.338 43.9038 256.812 38.4182 256.688 38.0611C256.654 37.9651 256.401 37.9647 256.126 38.0604C255.85 38.156 255.679 38.3938 255.747 38.5885ZM253.604 41.0534C250.787 43.8026 246.104 47.3513 242.405 49.5398C238.527 51.8345 232.421 54.6172 230.461 54.9841C229.624 55.1405 228.985 55.3982 229.042 55.5561C229.099 55.7144 230.271 56.6024 231.647 57.5295C234.094 59.1784 237.183 60.4099 239.738 60.7544C241.833 61.0371 241.289 61.2494 238.963 61.0567C235.71 60.7871 231.714 59.6413 227.548 57.7829L223.805 56.1137L230.762 53.4978C235.773 51.6136 238.681 50.3308 241.157 48.9116C244.286 47.118 250.619 42.7209 253.536 40.3166C255.685 38.5459 255.725 38.9837 253.604 41.0534ZM168.025 82.0067C172.217 88.0953 173.395 89.9657 173.107 90.0731C173.062 90.09 172.208 90.5454 171.211 91.0852C169.815 91.8408 168.965 92.0857 167.513 92.151C165.764 92.2299 165.616 92.1668 165.484 91.282C165.405 90.7574 164.78 86.8609 164.095 82.6226C163.409 78.3848 162.949 74.9659 163.071 75.0252C163.193 75.0844 165.422 78.2261 168.025 82.0067ZM193.972 86.6098C193.357 88.2878 192.917 89.6826 192.994 89.7102C193.159 89.7688 200.059 88.7855 203.106 88.2687C212.92 86.6053 229.352 81.38 238.028 77.1637C246.188 73.1983 251.678 69.6042 256.122 65.3179C257.476 64.013 258.509 62.909 258.419 62.8655C258.329 62.8214 256.971 63.6519 255.401 64.7107C247.762 69.8615 239.643 73.5458 226.555 77.7997C213.325 82.0995 203.667 83.9079 195.667 83.5826C195.27 83.5666 194.74 84.5138 193.972 86.6098Z" fill="#1F92E4"/>
</svg>
