<svg width="459" height="363" viewBox="0 0 459 363" fill="none" xmlns="http://www.w3.org/2000/svg">
<path fill-rule="evenodd" clip-rule="evenodd" d="M143.353 82.1404C115.974 95.1306 89.1018 114.89 60.3457 143.177C56.3052 147.152 52.6475 150.87 52.2174 151.44C51.5007 152.392 51.5964 152.422 53.3717 151.807C54.5497 151.398 56.4489 149.96 58.2218 148.134C75.263 130.577 99.2507 110.668 118.071 98.4605C135.524 87.1398 148.997 80.6962 167.833 74.6632C186.065 68.8231 198.887 66.7549 218.384 66.51C233.938 66.3142 247.694 67.515 263.744 70.4696C271.492 71.8961 279.976 73.0667 278.941 72.5666C277.421 71.8324 260.255 68.7296 250.228 67.3768C222.939 63.695 200.654 64.4839 177.697 69.945C170.219 71.7238 150.696 78.6563 143.353 82.1404ZM142.054 90.9153C141.293 91.453 142.9 91.1875 146.707 90.1466C153.611 88.2591 161.674 87.0838 167.496 87.1149C178.846 87.1765 194.981 90.3182 209.557 95.3045C215.896 97.4731 216.589 97.5882 218.156 96.7358C219.093 96.2256 221.504 94.9157 223.513 93.8249C226.03 92.4582 234.281 89.3746 250.029 83.9146C262.604 79.5551 272.844 75.8496 272.786 75.6806C272.663 75.3266 259.53 78.7947 248.395 82.1214C240.171 84.5785 226.015 90.3425 219.242 93.992L215.022 96.266L205.778 93.2808C186.468 87.0446 170.631 84.8331 156.704 86.4272C151.961 86.9701 144.331 89.3075 142.054 90.9153ZM127.984 98.4632C119.868 103.411 110.497 115.764 102.096 132.587C97.8731 141.044 98.736 140.205 105.726 129.056C116.246 112.275 121.768 105.397 129.922 98.9099C131.856 97.3719 133.408 96.0273 133.372 95.9219C133.247 95.5628 131.012 96.6167 127.984 98.4632ZM166.606 97.7527C162.156 101.044 160.379 104.991 162.09 107.783C163.257 109.686 164.01 109.725 163.359 107.848C162.69 105.92 163.979 102.967 166.659 100.286C168.199 98.7458 169.55 97.9908 172.769 96.8725C177.697 95.1605 181.442 95.264 187.08 97.2687L190.719 98.5627L187.901 97.1121C180.59 93.3497 172.219 93.6018 166.606 97.7527ZM170.366 108.305C173.321 109.995 177.596 110.017 186.218 108.383C189.104 107.837 192.468 107.474 193.696 107.577C195.769 107.751 196.411 107.53 202.704 104.478C206.431 102.67 209.631 100.879 209.816 100.497C210.534 99.017 207.842 99.837 200.978 103.19C194.74 106.238 193.732 106.606 192.438 106.307C191.084 105.994 187.499 106.44 181.434 107.676C178.141 108.346 173.74 108.449 171.1 107.917L168.922 107.478L170.366 108.305ZM30.0729 162.736C29.3767 163.411 29.643 163.433 31.4295 162.846C36.0786 161.32 49.9778 158.326 64.6707 155.687C81.6216 152.642 85.9645 151.691 100.983 147.739C118.222 143.203 136.177 137.548 146.561 133.385C157.95 128.818 157.384 129.096 173.346 120.24C187.956 112.134 189.708 111.051 189.061 110.524C188.236 109.852 185.443 111.162 174.319 117.436C168.366 120.795 161.172 124.732 158.334 126.185C150.997 129.942 129.632 137.794 116.494 141.562C90.8919 148.906 81.9868 150.981 57.3203 155.353C44.7135 157.587 31.7639 161.096 30.0729 162.736ZM237.471 91.3735C237.385 91.76 238.305 91.9339 239.723 91.798C254.046 90.425 263.282 92.0334 275.251 97.9861C279.068 99.8845 280.752 100.534 279.267 99.536C272.606 95.058 262.746 91.4113 254.432 90.3514C247.68 89.4907 237.758 90.0885 237.471 91.3735ZM29.9515 167.1C29.0045 167.881 28.1526 168.68 28.0581 168.875C27.9636 169.069 30.1742 168.456 32.971 167.511C39.1288 165.432 42.1796 165.594 47.9043 168.303C51.4791 169.995 51.5306 170.001 49.1882 168.457C42.4081 163.987 34.4112 163.424 29.9515 167.1ZM231.242 100.257C221.207 106.415 215.212 116.473 213.404 130.185C212.728 135.306 212.898 143.828 213.787 149.443C214.734 155.42 219.937 169.969 223.154 175.638C224.569 178.129 225.651 180.322 225.56 180.51C225.468 180.699 223.061 181.117 220.209 181.44C217.358 181.762 208.969 182.711 201.567 183.547C179.405 186.052 159.387 189.568 135.371 195.174C123.504 197.944 98.8003 204.33 96.3969 205.249C95.5179 205.585 101.541 204.647 109.781 203.164C156.771 194.709 199.823 190.791 232.925 191.959C235.496 192.05 237.758 192.069 237.952 192.002C238.145 191.935 237.356 190.581 236.197 188.993C231.271 182.24 228.015 175.865 224.77 166.62L221.647 157.721L220.225 158.211C218.836 158.69 218.78 158.632 217.752 155.669C215.384 148.837 214.503 138.684 215.562 130.402C218.342 108.643 234.564 94.8377 254.248 97.4792C260.544 98.3237 265.768 100.221 272.585 104.14C276.056 106.135 278.988 107.736 279.101 107.697C279.696 107.491 269.438 101.304 266.002 99.7972C253.266 94.2129 240.822 94.3776 231.242 100.257ZM30.4142 171.101C30.6477 171.695 30.8126 171.775 30.8347 171.306C30.8547 170.881 30.6815 170.441 30.4504 170.329C30.2194 170.217 30.2032 170.564 30.4142 171.101ZM37.5267 173.024C39.1115 181.673 39.5925 183.388 40.2877 182.856C40.76 182.493 40.4922 180.774 39.2689 176.329C37.2103 168.848 36.5227 167.542 37.5267 173.024ZM31.5207 172.744C31.6618 173.146 33.1667 175.989 34.8645 179.061C36.5623 182.134 38.0181 184.835 38.0994 185.064C38.1812 185.294 38.435 185.251 38.6641 184.97C39.1976 184.315 37.2945 180.427 34.1869 175.823C31.7807 172.258 31.0546 171.419 31.5207 172.744ZM27.1049 176.569C27.1346 176.733 29.044 179.307 31.3486 182.29C33.6531 185.273 35.4876 187.818 35.426 187.946C35.3638 188.073 34.0208 187.762 32.4421 187.254C30.8629 186.746 28.4078 185.966 26.9862 185.522L24.4011 184.715L27.6128 186.643C29.379 187.704 30.8977 188.42 30.9878 188.234C31.0781 188.049 32.3344 188.264 33.7797 188.711C37.1191 189.746 37.5866 188.956 35.3403 186.074C34.4106 184.882 33.5149 183.544 33.3488 183.101C33.054 182.314 26.9989 175.979 27.1049 176.569ZM43.4808 177.692L43.4562 183.952L45.6809 185.933C46.9042 187.022 47.9764 187.767 48.0623 187.59C48.1487 187.411 47.6343 186.814 46.9184 186.262C45.6937 185.317 45.5745 184.879 44.8791 178.759C44.4731 175.184 43.9977 172.073 43.8229 171.846C43.6486 171.619 43.4941 174.25 43.4808 177.692ZM75.2625 162.865C73.7312 164.086 70.7141 168.233 69.8116 170.358C69.3213 171.511 69.3805 171.86 70.1437 172.322C70.9545 172.813 71.2629 172.529 72.5738 170.085C75.5159 164.6 79.3503 161.553 83.5293 161.38C85.1583 161.312 88.2805 160.517 91.6317 159.315L97.0836 157.359L89.1753 158.755C80.4874 160.289 77.3207 161.224 75.2625 162.865ZM81.2501 163.559C80.5718 164.42 79.5848 166.333 79.0578 167.809C78.1382 170.382 78.1514 170.533 79.369 171.473C80.7604 172.546 81.401 172.651 80.5748 171.671C80.269 171.308 80.8235 169.404 81.9048 167.106C84.2999 162.013 83.9523 160.127 81.2501 163.559ZM243.723 106.648C241.822 107.794 236.215 112.724 236.623 112.892C236.723 112.933 238.654 111.912 240.913 110.624C243.173 109.336 247.462 107.434 250.445 106.398C255.06 104.794 256.398 104.544 259.42 104.725C268.557 105.273 278.26 109.633 286.465 116.877C289.727 119.757 290.424 119.9 287.492 117.088C281.552 111.388 271.194 105.565 264.485 104.153C257.092 102.597 248.786 103.595 243.723 106.648ZM50.6731 175.354C51.0498 175.835 50.4997 177.231 48.98 179.649C47.3811 182.194 46.8503 183.583 47.1485 184.443C47.8184 186.375 48.4831 185.595 50.0596 181.027C50.8709 178.676 51.7912 176.81 52.1042 176.879C52.9939 177.079 52.4805 176.187 51.2385 175.376C50.5085 174.9 50.3102 174.892 50.6731 175.354ZM116.536 155.036C120.411 155.469 130.562 152.923 130.113 151.63C129.795 150.711 128.38 150.871 122.316 152.51C119.842 153.179 116.852 153.946 115.671 154.213L113.525 154.7L116.536 155.036ZM54.9979 180.423C56.156 181.9 57.1657 183.287 57.2411 183.504C57.3814 183.909 56.3658 184.726 51.7726 187.904L49.1658 189.707L50.4415 192.606C51.6373 195.322 53.2456 196.837 53.0351 195.048C52.9609 194.419 53.6287 194.363 56.1296 194.792C57.8835 195.093 60.0088 195.265 60.853 195.174C61.9412 195.058 62.4995 195.332 62.7725 196.12C63.4728 198.14 64.2942 204.166 63.888 204.307C63.669 204.383 60.9554 202.962 57.8578 201.149L52.2265 197.853L51.9512 200.448C51.8001 201.875 51.8502 203.358 52.0628 203.744C52.2753 204.13 54.5705 206.46 57.1627 208.922C59.755 211.384 61.6584 213.083 61.3928 212.697C59.0302 209.27 54.8255 204.089 54.6155 204.346C54.4713 204.523 54.1185 203.991 53.8315 203.163C53.5446 202.335 53.5213 201.706 53.7791 201.763C54.0375 201.821 54.2685 201.534 54.2925 201.126C54.3349 200.42 54.7989 200.608 58.3284 202.762C58.8276 203.066 60.3525 203.71 61.718 204.193L64.2 205.07L64.0583 207.354C63.8234 211.137 62.7195 214.549 60.9551 216.947C58.9958 219.609 58.9388 219.644 58.2222 218.572C57.8085 217.953 57.7574 218.042 58.0157 218.933C58.3277 220.01 58.1021 220.205 55.5172 221.101C52.1474 222.27 52.4534 222.753 50.6126 213.347C49.4259 207.283 49.4221 206.923 50.5454 206.76C51.5227 206.617 51.6237 206.396 51.1138 205.511C50.6685 204.737 50.0122 204.524 48.7791 204.752C47.8362 204.925 47.0353 205.114 46.9994 205.171C46.9634 205.227 48.0373 208.998 49.3859 213.549C51.7836 221.641 51.811 221.824 50.6329 221.863C49.9703 221.885 48.7096 221.708 47.8314 221.47C44.4723 220.559 44.5553 220.878 48.0813 222.438C50.0938 223.328 52.511 224.101 53.4523 224.157C55.1569 224.258 56.3035 225.303 54.6502 225.248C54.1725 225.233 48.798 226.821 42.7063 228.777C31.2613 232.453 32.087 232.459 46.6127 228.806C50.1263 227.922 55.5284 226.601 58.6173 225.87C63.3858 224.741 64.4646 224.325 65.7657 223.117L67.2978 221.693L65.2162 222.367L63.1347 223.04L64.8302 221.253C66.9211 219.05 67.9947 217.154 69.0078 213.877C69.9706 210.76 69.847 210.345 68.1321 210.94C67.0838 211.303 66.7721 211.184 66.744 210.408C66.4455 202.232 66.2801 201.23 64.2771 195.492C63.137 192.225 61.6371 188.707 60.9444 187.673C60.2511 186.64 59.1747 184.93 58.5517 183.872C56.9637 181.177 55.0474 178.873 53.8818 178.259C53.1985 177.899 53.5445 178.57 54.9979 180.423ZM242.1 113.927C242.378 114.936 254.808 138.923 255.606 139.991C256.102 140.654 256.545 140.792 256.874 140.386C257.269 139.898 256.152 137.516 251.804 129.572C247.012 120.818 241.589 112.075 242.1 113.927ZM76.2133 172.25C77.043 173.007 80.1477 175.096 85.2131 178.304C89.4088 180.962 95.1212 182.583 94.5568 180.955C94.4608 180.678 93.5432 180.33 92.5177 180.182C89.7587 179.783 85.6194 177.896 81.0031 174.931C76.4433 172.002 75.1456 171.276 76.2133 172.25ZM38.4745 185.717C37.2698 186.768 38.3702 187.451 39.9997 186.664C41.2575 186.057 42.1772 186.072 43.9036 186.729C46.2167 187.61 45.8873 186.977 43.2859 185.542C42.3625 185.032 41.5249 184.967 40.9947 185.362C40.5353 185.705 40.0731 185.737 39.968 185.434C39.7659 184.851 39.3847 184.924 38.4745 185.717ZM256.42 123.52C258.285 135.35 258.653 138.419 257.967 136.441C257.836 136.062 257.64 135.934 257.532 136.157C257.424 136.379 257.763 136.956 258.286 137.438C259.263 138.34 260.593 138.244 260.814 137.257C261.208 135.49 255.356 110.141 254.613 110.399C254.476 110.446 255.289 116.351 256.42 123.52ZM45.5011 190.406C48.4289 194.802 49.4257 199.437 48.0014 202.035C47.1343 203.617 46.0102 203.521 43.496 201.653C41.4099 200.104 41.3096 200.252 38.7458 208.683C37.6639 212.242 37.0953 214.635 37.4822 214.001C40.875 208.447 42.6523 205.075 42.853 203.81L43.0916 202.312L45.0455 203.343C49.4692 205.679 52.0536 201.93 50.0342 196.105C49.1709 193.615 46.4955 189.709 44.8928 188.599C43.9279 187.931 44.0043 188.158 45.5011 190.406ZM28.6566 195.378C30.834 195.904 32.4267 195.935 38.4171 195.568C39.219 195.519 39.2936 195.18 38.8068 193.796C38.3896 192.611 38.1412 192.354 37.9988 192.959C37.8265 193.693 37.0314 193.892 33.0818 194.192C30.49 194.389 27.8659 194.6 27.2499 194.659C26.6339 194.719 27.2669 195.042 28.6566 195.378ZM60.4388 189.869C61.5908 192.606 62.1883 194.542 61.8747 194.52C58.8831 194.315 51.7194 192.619 51.5291 192.07C51.3949 191.683 52.1146 190.567 53.1291 189.59C54.1436 188.613 55.5127 187.116 56.1721 186.264C56.8315 185.411 57.6176 184.819 57.9187 184.948C58.2198 185.077 59.3539 187.291 60.4388 189.869ZM234.108 123.875C234.37 124.262 238.266 129.374 242.765 135.236C247.265 141.098 250.876 146.039 250.79 146.217C250.703 146.395 246.277 145.222 240.954 143.609C229.412 140.113 228.872 139.993 231.712 141.55C234.424 143.036 252.913 153.374 253.517 153.741C253.757 153.887 253.904 152.338 253.842 150.298L253.73 146.589L247.93 139.528C244.74 135.644 242.184 132.357 242.248 132.223C242.313 132.089 244.942 134.675 248.09 137.969C254.418 144.59 254.238 144.425 254.502 143.879C254.606 143.666 249.953 138.919 244.161 133.331C238.371 127.743 233.846 123.488 234.108 123.875ZM89.5848 175.615C92.5447 178.208 98.0998 180.876 102.361 181.75C105.908 182.478 121.222 182.962 121.516 182.355C121.565 182.253 117.324 181.76 112.09 181.258C100.39 180.136 95.9507 179.132 92.2256 176.765C88.2316 174.227 87.77 174.025 89.5848 175.615ZM266.553 126.378L265.984 139.158L268.145 140.534C269.333 141.292 271.161 142.829 272.207 143.951C273.252 145.073 274.152 145.889 274.206 145.764C274.98 143.977 276.261 139.233 276.05 138.936C275.896 138.72 276.546 136.998 277.494 135.11C278.443 133.223 279.839 130.041 280.597 128.039L281.975 124.4L285.015 127.998C288.383 131.982 292.299 137.727 292.028 138.287C291.932 138.485 288.393 140.962 284.166 143.79L276.478 148.933L278.618 154.509C279.795 157.576 280.86 160.14 280.984 160.206C281.109 160.272 284.704 160.016 288.973 159.637C293.242 159.259 297.721 158.873 298.927 158.781L301.119 158.613L301.952 162.01C303.016 166.343 303.974 175.48 303.386 175.683C303.139 175.769 298.01 173.102 291.987 169.756C282.237 164.34 281.047 163.817 281.132 164.986C281.273 166.933 280.736 170.345 280.029 171.989C279.408 173.434 279.419 173.447 289.756 183.572L300.105 193.708L298.833 195.883C297.417 198.304 293.733 202.748 292.894 203.048C292.576 203.161 289.564 197.808 285.606 190.096C281.897 182.866 278.594 176.565 278.268 176.094C277.828 175.459 277.388 175.426 276.56 175.968C275.946 176.37 274.398 176.701 273.119 176.703L270.795 176.708L271.113 178.407C271.287 179.342 273.224 186.121 275.418 193.473C277.611 200.825 279.375 206.894 279.34 206.96C279.196 207.225 268.367 206.558 267.761 206.247C267.36 206.041 267.373 200.163 267.797 190.82C268.48 175.761 268.478 175.724 267.091 174.857C266.326 174.38 264.607 172.904 263.271 171.578L260.841 169.166L257.487 178.792C255.643 184.087 253.562 190.049 252.865 192.041L251.596 195.665L253.125 193.411C253.966 192.171 256.664 188.034 259.122 184.218C261.58 180.401 263.69 177.327 263.813 177.386C263.935 177.446 264.296 180.392 264.615 183.933C264.934 187.474 265.554 193.785 265.993 197.958C266.781 205.435 266.772 205.55 265.378 205.934C264.601 206.149 260.009 206.186 255.176 206.018C200.331 204.104 135.852 208.327 90.49 216.803C81.9071 218.407 66.2682 223.008 65.7462 224.084C65.6127 224.36 65.8862 224.452 66.3548 224.29C68.2934 223.618 88.2884 219.749 98.7279 218.027C188.565 203.202 278.656 208.026 343.63 231.14C358.708 236.503 375.306 244.778 385.593 252.062C388.02 253.779 389.927 254.961 389.832 254.69C389.434 253.539 385.385 248.821 382.37 245.995C380.582 244.318 376.604 241.127 373.531 238.903C366.279 233.656 366.447 233.812 368.616 234.329C378.013 236.565 390.889 241.064 399.973 245.285C406.047 248.109 405.835 247.742 398.83 243.31C389.764 237.573 373.583 230.341 352.333 222.527C348.876 221.255 350.311 221.263 360.238 222.567C369.448 223.777 376.171 224.987 382.302 226.536C388.351 228.065 386.99 227.286 378.594 224.414C360.338 218.167 330.298 211.925 307.822 209.708C302.132 209.146 300.302 208.588 302.105 207.963C303.487 207.484 306.646 204.222 308.746 201.105C314.074 193.196 316.107 181.626 314.521 168.232C314.092 164.607 313.189 161.35 310.304 153.026C306.242 141.308 303.3 135.607 297.373 127.975C293.991 123.621 290.183 119.347 290.008 119.708C289.944 119.84 291.123 121.328 292.627 123.014C294.132 124.701 296.144 127.178 297.098 128.518L298.832 130.955L295.228 132.205C292.258 133.235 291.512 133.315 290.995 132.66C289.417 130.662 284.718 125.69 284.297 125.576C284.04 125.506 283.454 124.928 282.994 124.291C282.02 122.942 273.95 116.663 272.883 116.424C272.485 116.335 272.878 116.776 273.758 117.404C276.545 119.392 280.466 122.874 280.71 123.578C280.839 123.95 279.115 127.051 276.878 130.47C274.64 133.888 272.325 137.605 271.73 138.731C270.765 140.558 270.548 140.714 269.691 140.196C268.884 139.707 268.748 138.584 268.832 133.089C268.937 126.277 268.02 113.271 267.45 113.479C267.269 113.544 266.866 119.349 266.553 126.378ZM270.227 115.044C270.264 115.151 270.813 115.417 271.445 115.635C272.487 115.993 272.499 115.969 271.573 115.372C270.599 114.745 270.08 114.619 270.227 115.044ZM33.9154 201.802C32.4468 203.773 31.3518 205.437 31.4821 205.501C31.834 205.671 36.5627 202.207 37.9126 200.791C39.2331 199.404 38.9225 197.311 37.4794 197.872C36.9888 198.063 35.3846 199.831 33.9154 201.802ZM301.579 113.335C318.665 127.192 331.887 146.829 336.167 164.705C336.999 168.183 337.792 172.683 337.927 174.706L338.173 178.383L331.889 180.552C328.432 181.746 325.94 182.805 326.351 182.906C327.17 183.108 339.983 182.897 342.381 182.642C344.026 182.468 344.144 181.746 343.462 176.021C340.973 155.111 325.327 130.568 304.245 114.499C297.547 109.394 295.755 108.611 301.579 113.335ZM43.5687 207.357C43.4537 209.176 44.6897 217.926 45.0884 218.119C45.2547 218.2 45.3713 215.671 45.3483 212.5C45.3155 208.06 45.1164 206.643 44.4818 206.335C43.8479 206.027 43.6377 206.262 43.5687 207.357ZM318.101 114.364C317.194 116.233 318.044 119.085 319.371 118.625C319.871 118.452 320.33 117.707 320.388 116.97C320.522 115.295 322.084 114.47 325.956 114.028C329.046 113.675 340.55 114.281 342.804 114.916C343.933 115.234 343.71 115.396 340.725 116.432L337.381 117.592L341.194 118.006C343.876 118.297 345.787 118.149 347.639 117.507C351.964 116.008 358.498 117.567 359.455 120.327C359.711 121.066 360.332 121.121 362.494 120.597C365.601 119.843 368.529 120.858 369.37 122.981C369.727 123.88 371.272 124.821 374.68 126.214C377.325 127.295 381.016 129.08 382.884 130.181C384.751 131.283 386.519 132.191 386.812 132.199C387.104 132.207 387.786 131.638 388.328 130.936C390.209 128.497 388.33 126.294 381.787 123.266C369.671 117.659 358.728 114.578 345.041 112.92C334.157 111.602 325.767 111.356 321.762 112.238C319.208 112.8 318.723 113.082 318.101 114.364ZM51.2869 209.11C51.6041 209.558 53.0447 211.665 54.4882 213.793C55.9321 215.921 57.1823 217.521 57.2663 217.347C57.4025 217.067 55.1789 212.734 53.0274 209.086C52.5967 208.356 51.9039 207.883 51.4792 208.031C50.9914 208.2 50.9209 208.594 51.2869 209.11ZM245.19 146.804C247.998 147.713 248.651 148.113 247.97 148.506C247.403 148.835 245.955 148.445 243.975 147.431C242.266 146.557 241.015 145.791 241.194 145.729C241.373 145.667 243.171 146.151 245.19 146.804ZM256.621 142.336C253.723 145.569 253.807 153.98 256.805 160.871C261.38 171.382 268.482 177.076 274.443 175.009C276.763 174.205 277.051 173.909 278.184 171.169C279.865 167.103 279.641 163.131 277.364 156.632C274.203 147.609 268.365 141.116 262.65 140.265C260.608 139.961 257.923 140.883 256.621 142.336ZM263.612 142.706C264.33 142.869 264.268 142.956 263.349 143.074C262.204 143.22 262.254 143.305 264.335 144.76C273.423 151.114 278.516 170.993 271.664 173.368C269.304 174.186 267.01 173.223 263.896 170.107C256.398 162.603 253.108 148.085 257.973 143.969C258.991 143.108 262.206 142.388 263.612 142.706ZM331.803 130.559C345.391 140.661 350.461 141.761 367.104 138.215C375.429 136.441 384.913 133.66 384.703 133.054C384.347 132.026 367.678 126.648 366.602 127.213C365.067 128.021 363.442 127.957 361.495 127.012C359.485 126.037 358.866 126.018 356.333 126.856C353.105 127.923 348.707 127.408 346.497 125.703C345.53 124.957 343.421 124.767 337.39 124.881C333.073 124.962 328.576 125.177 327.396 125.357L325.25 125.686L331.803 130.559ZM232.814 159.048C233.348 159.209 238.175 160.175 243.542 161.193C248.909 162.212 253.352 163.201 253.415 163.391C253.478 163.582 250.524 167.384 246.85 171.842C243.176 176.299 240.222 179.974 240.287 180.008C240.352 180.042 244.624 177.223 249.781 173.744C258.737 167.702 259.133 167.365 258.624 166.235C258.331 165.583 257.278 163.215 256.284 160.971L254.477 156.892L244.009 157.765C238.251 158.246 233.159 158.665 232.693 158.697C231.939 158.749 231.953 158.788 232.814 159.048ZM297.651 148.772C299.42 152.798 300.853 156.518 300.836 157.039C300.811 157.816 299.04 157.65 290.888 156.104C285.433 155.07 280.957 154.034 280.942 153.803C280.927 153.572 283.572 150.154 286.82 146.209L292.726 139.037L293.581 140.244C294.051 140.908 295.883 144.746 297.651 148.772ZM294.543 173.985L303.682 176.761L303.429 180.194C303.139 184.141 301.053 192.32 300.286 192.518C299.846 192.632 283.651 172.125 283.235 170.925C283.154 170.691 283.609 170.66 284.246 170.854C284.883 171.05 289.517 172.458 294.543 173.985ZM419.362 124.511C419.466 124.811 419.314 125.005 419.023 124.94C418.732 124.875 414.925 126.939 410.562 129.527C391.079 141.088 375.275 147.183 356.04 150.556C352.741 151.134 350.109 151.799 350.19 152.032C350.535 153.029 369.216 161.549 373.752 162.778C392.553 167.874 407.148 164.035 421.484 150.222C423.575 148.207 425.172 146.502 425.033 146.434C424.893 146.367 422.888 147.542 420.576 149.047C414.911 152.733 404.969 156.311 400.301 156.342C395.792 156.371 391.485 155.235 388.419 153.208L385.777 151.46L389.699 149.692C397.668 146.1 405.211 141.091 411.33 135.327C414.095 132.723 421.007 124.248 420.816 123.696C420.765 123.548 420.374 123.547 419.947 123.695C419.521 123.843 419.258 124.21 419.362 124.511ZM416.052 128.319C411.699 132.567 404.464 138.049 398.75 141.431C392.757 144.976 383.323 149.275 380.294 149.842C379.001 150.084 378.015 150.482 378.103 150.726C378.19 150.97 380.001 152.342 382.127 153.775C385.908 156.322 390.682 158.225 394.628 158.757C397.865 159.194 397.024 159.522 393.431 159.224C388.405 158.808 382.231 157.038 375.794 154.166L370.011 151.587L380.761 147.546C388.503 144.635 392.995 142.653 396.821 140.46C401.655 137.689 411.439 130.895 415.947 127.181C419.266 124.445 419.329 125.121 416.052 128.319ZM283.83 191.593C290.307 201 292.128 203.889 291.682 204.055C291.612 204.082 290.294 204.785 288.754 205.619C286.597 206.786 285.283 207.165 283.039 207.266C280.337 207.388 280.108 207.29 279.904 205.923C279.783 205.113 278.817 199.092 277.758 192.544C276.699 185.997 275.987 180.715 276.176 180.806C276.364 180.898 279.809 185.751 283.83 191.593ZM323.919 198.704C322.969 201.297 322.289 203.452 322.408 203.495C322.663 203.585 333.324 202.066 338.031 201.268C353.194 198.698 378.581 190.624 391.986 184.11C404.594 177.984 413.076 172.431 419.943 165.808C422.033 163.792 423.63 162.086 423.491 162.019C423.351 161.951 421.253 163.234 418.827 164.87C407.026 172.828 394.481 178.52 374.26 185.093C353.82 191.736 338.898 194.53 326.538 194.027C325.925 194.003 325.105 195.466 323.919 198.704Z" fill="#1F92E4"/>
<path d="M99.15 233H102.15V251.39H113.52V254H99.15V233ZM126.062 254.24C123.942 254.24 122.032 253.78 120.332 252.86C118.632 251.92 117.292 250.63 116.312 248.99C115.352 247.35 114.872 245.52 114.872 243.5C114.872 241.48 115.352 239.65 116.312 238.01C117.292 236.37 118.632 235.09 120.332 234.17C122.032 233.23 123.942 232.76 126.062 232.76C128.162 232.76 130.062 233.23 131.762 234.17C133.462 235.09 134.792 236.37 135.752 238.01C136.712 239.63 137.192 241.46 137.192 243.5C137.192 245.54 136.712 247.38 135.752 249.02C134.792 250.64 133.462 251.92 131.762 252.86C130.062 253.78 128.162 254.24 126.062 254.24ZM126.062 251.57C127.602 251.57 128.982 251.22 130.202 250.52C131.442 249.82 132.412 248.86 133.112 247.64C133.832 246.4 134.192 245.02 134.192 243.5C134.192 241.98 133.832 240.61 133.112 239.39C132.412 238.15 131.442 237.18 130.202 236.48C128.982 235.78 127.602 235.43 126.062 235.43C124.522 235.43 123.122 235.78 121.862 236.48C120.622 237.18 119.642 238.15 118.922 239.39C118.222 240.61 117.872 241.98 117.872 243.5C117.872 245.02 118.222 246.4 118.922 247.64C119.642 248.86 120.622 249.82 121.862 250.52C123.122 251.22 124.522 251.57 126.062 251.57ZM151.167 254.24C149.067 254.24 147.167 253.78 145.467 252.86C143.787 251.92 142.467 250.64 141.507 249.02C140.547 247.38 140.067 245.54 140.067 243.5C140.067 241.46 140.547 239.63 141.507 238.01C142.467 236.37 143.797 235.09 145.497 234.17C147.197 233.23 149.097 232.76 151.197 232.76C152.837 232.76 154.337 233.04 155.697 233.6C157.057 234.14 158.217 234.95 159.177 236.03L157.227 237.92C155.647 236.26 153.677 235.43 151.317 235.43C149.757 235.43 148.347 235.78 147.087 236.48C145.827 237.18 144.837 238.15 144.117 239.39C143.417 240.61 143.067 241.98 143.067 243.5C143.067 245.02 143.417 246.4 144.117 247.64C144.837 248.86 145.827 249.82 147.087 250.52C148.347 251.22 149.757 251.57 151.317 251.57C153.657 251.57 155.627 250.73 157.227 249.05L159.177 250.94C158.217 252.02 157.047 252.84 155.667 253.4C154.307 253.96 152.807 254.24 151.167 254.24ZM176.339 248.75H165.179L162.869 254H159.779L169.289 233H172.259L181.799 254H178.649L176.339 248.75ZM175.289 246.35L170.759 236.06L166.229 246.35H175.289ZM184.931 233H187.931V251.39H199.301V254H184.931V233ZM202.744 233H205.744V254H202.744V233ZM227.721 251.39V254H210.171V251.96L223.371 235.61H210.381V233H227.331V235.04L214.191 251.39H227.721ZM245.128 248.75H233.968L231.658 254H228.568L238.078 233H241.048L250.588 254H247.438L245.128 248.75ZM244.078 246.35L239.548 236.06L235.018 246.35H244.078ZM263.11 254.15C261.05 254.15 259.19 253.69 257.53 252.77C255.89 251.85 254.59 250.58 253.63 248.96C252.69 247.34 252.22 245.52 252.22 243.5C252.22 241.48 252.69 239.66 253.63 238.04C254.59 236.42 255.89 235.15 257.53 234.23C259.19 233.31 261.05 232.85 263.11 232.85C264.63 232.85 266.03 233.1 267.31 233.6C268.59 234.08 269.68 234.8 270.58 235.76L269.62 236.75C267.94 235.09 265.79 234.26 263.17 234.26C261.41 234.26 259.81 234.66 258.37 235.46C256.93 236.26 255.8 237.37 254.98 238.79C254.16 240.19 253.75 241.76 253.75 243.5C253.75 245.24 254.16 246.82 254.98 248.24C255.8 249.64 256.93 250.74 258.37 251.54C259.81 252.34 261.41 252.74 263.17 252.74C265.77 252.74 267.92 251.9 269.62 250.22L270.58 251.21C269.68 252.17 268.58 252.9 267.28 253.4C266 253.9 264.61 254.15 263.11 254.15ZM288.138 248.09H275.958L273.288 254H271.638L281.298 233H282.828L292.488 254H290.838L288.138 248.09ZM287.568 246.8L282.048 234.68L276.558 246.8H287.568ZM310.881 254L305.871 246.98C305.131 247.08 304.451 247.13 303.831 247.13H297.831V254H296.301V233H303.831C306.471 233 308.541 233.63 310.041 234.89C311.541 236.13 312.291 237.86 312.291 240.08C312.291 241.74 311.861 243.14 311.001 244.28C310.161 245.4 308.951 246.19 307.371 246.65L312.621 254H310.881ZM303.831 245.78C306.071 245.78 307.781 245.29 308.961 244.31C310.141 243.31 310.731 241.9 310.731 240.08C310.731 238.26 310.141 236.86 308.961 235.88C307.781 234.88 306.071 234.38 303.831 234.38H297.831V245.78H303.831Z" fill="#1F92E4"/>
</svg>
