<svg width="696" height="550" viewBox="0 0 696 550" fill="none" xmlns="http://www.w3.org/2000/svg">
<path fill-rule="evenodd" clip-rule="evenodd" d="M217.898 124.764C176.312 144.495 135.496 174.508 91.8184 217.472C85.6813 223.51 80.1256 229.157 79.4722 230.024C78.3837 231.469 78.5289 231.515 81.2255 230.58C83.0148 229.96 85.8996 227.775 88.5924 225.002C114.476 198.335 150.912 168.095 179.498 149.552C206.007 132.357 226.472 122.57 255.081 113.406C282.774 104.536 302.25 101.394 331.864 101.022C355.489 100.725 376.384 102.549 400.762 107.037C412.53 109.203 425.417 110.982 423.844 110.222C421.535 109.107 395.463 104.394 380.232 102.339C338.783 96.7468 304.934 97.9451 270.064 106.24C258.705 108.942 229.052 119.472 217.898 124.764ZM215.926 138.092C214.77 138.909 217.211 138.505 222.994 136.924C233.479 134.057 245.726 132.272 254.57 132.319C271.81 132.413 296.318 137.185 318.457 144.759C328.085 148.053 329.138 148.227 331.518 146.933C332.941 146.158 336.603 144.168 339.655 142.511C343.477 140.435 356.01 135.752 379.93 127.459C399.03 120.837 414.584 115.208 414.495 114.952C414.309 114.414 394.36 119.682 377.448 124.735C364.956 128.467 343.455 137.222 333.166 142.765L326.757 146.219L312.716 141.685C283.386 132.213 259.332 128.854 238.178 131.275C230.974 132.1 219.384 135.65 215.926 138.092ZM194.554 149.556C182.228 157.072 167.994 175.834 155.234 201.387C148.819 214.234 150.13 212.958 160.747 196.024C176.726 170.535 185.113 160.088 197.499 150.235C200.436 147.899 202.794 145.857 202.738 145.696C202.549 145.151 199.154 146.752 194.554 149.556ZM253.218 148.477C246.459 153.477 243.759 159.471 246.359 163.712C248.131 166.603 249.274 166.662 248.286 163.811C247.271 160.882 249.228 156.397 253.298 152.326C255.638 149.986 257.69 148.839 262.579 147.14C270.064 144.54 275.753 144.697 284.316 147.742L289.843 149.708L285.562 147.504C274.458 141.79 261.744 142.172 253.218 148.477ZM258.929 164.505C263.418 167.072 269.911 167.105 283.007 164.624C287.39 163.795 292.501 163.244 294.365 163.4C297.514 163.664 298.489 163.329 308.048 158.692C313.708 155.946 318.569 153.226 318.851 152.646C319.941 150.398 315.852 151.643 305.426 156.737C295.95 161.365 294.419 161.924 292.455 161.47C290.397 160.996 284.953 161.673 275.741 163.55C270.738 164.568 264.053 164.724 260.044 163.916L256.736 163.249L258.929 164.505ZM45.8367 247.181C44.7794 248.206 45.1838 248.239 47.8974 247.349C54.9589 245.03 76.0705 240.482 98.3877 236.474C124.135 231.849 130.731 230.405 153.543 224.402C179.728 217.512 206.999 208.922 222.771 202.599C240.071 195.663 239.211 196.085 263.456 182.633C285.646 170.321 288.307 168.676 287.325 167.876C286.072 166.855 281.83 168.845 264.934 178.375C255.891 183.476 244.965 189.456 240.653 191.664C229.509 197.37 197.059 209.296 177.103 215.02C138.215 226.174 124.689 229.326 87.2231 235.967C68.0746 239.361 48.4053 244.691 45.8367 247.181ZM360.855 138.788C360.724 139.375 362.123 139.639 364.275 139.433C386.031 137.347 400.06 139.79 418.24 148.832C424.038 151.715 426.595 152.702 424.339 151.186C414.222 144.384 399.245 138.845 386.617 137.235C376.361 135.928 361.292 136.836 360.855 138.788ZM45.6524 253.81C44.214 254.996 42.9201 256.209 42.7765 256.505C42.633 256.801 45.9907 255.869 50.2387 254.434C59.5919 251.276 64.2257 251.521 72.9211 255.637C78.3509 258.207 78.4291 258.217 74.8712 255.871C64.5729 249.082 52.4263 248.225 45.6524 253.81ZM351.394 152.281C336.153 161.635 327.047 176.912 324.299 197.739C323.274 205.517 323.531 218.461 324.882 226.99C326.32 236.069 334.222 258.168 339.11 266.778C341.258 270.562 342.902 273.892 342.763 274.179C342.624 274.465 338.967 275.1 334.636 275.59C330.306 276.08 317.564 277.52 306.321 278.791C272.659 282.596 242.253 287.937 205.775 296.451C187.75 300.659 150.227 310.358 146.577 311.754C145.242 312.264 154.39 310.839 166.906 308.587C238.28 295.744 303.671 289.795 353.951 291.568C357.856 291.706 361.291 291.736 361.586 291.634C361.879 291.532 360.68 289.475 358.92 287.063C351.438 276.805 346.493 267.123 341.564 253.08L336.82 239.564L334.66 240.308C332.551 241.036 332.465 240.948 330.904 236.447C327.307 226.07 325.969 210.648 327.577 198.068C331.801 165.019 356.441 144.05 386.338 148.062C395.901 149.345 403.836 152.227 414.19 158.179C419.463 161.21 423.917 163.641 424.087 163.582C424.992 163.269 409.411 153.871 404.191 151.583C384.846 143.101 365.945 143.351 351.394 152.281ZM46.3552 259.887C46.7099 260.788 46.9604 260.91 46.9939 260.197C47.0242 259.552 46.7611 258.885 46.4103 258.714C46.0594 258.544 46.0347 259.071 46.3552 259.887ZM57.1585 262.808C59.5656 275.945 60.2962 278.549 61.3522 277.741C62.0695 277.191 61.6628 274.58 59.8046 267.828C56.6778 256.464 55.6334 254.481 57.1585 262.808ZM48.0359 262.381C48.2502 262.992 50.536 267.31 53.1148 271.977C55.6937 276.644 57.9048 280.747 58.0283 281.096C58.1525 281.444 58.5381 281.38 58.8861 280.953C59.6963 279.958 56.8057 274.052 52.0857 267.059C48.4308 261.644 47.328 260.37 48.0359 262.381ZM41.3287 268.192C41.3737 268.441 44.274 272.351 47.7745 276.882C51.2748 281.412 54.0613 285.278 53.9677 285.472C53.8731 285.666 51.8332 285.193 49.4354 284.421C47.0367 283.649 43.3077 282.465 41.1484 281.791L37.2218 280.564L42.1001 283.493C44.7828 285.105 47.0896 286.193 47.2265 285.911C47.3637 285.629 49.2718 285.955 51.467 286.635C56.5394 288.207 57.2495 287.007 53.8375 282.629C52.4253 280.818 51.0649 278.786 50.8125 278.114C50.3648 276.919 41.1677 267.297 41.3287 268.192ZM66.2022 269.898L66.1648 279.405L69.5439 282.414C71.402 284.069 73.0306 285.201 73.161 284.931C73.2923 284.661 72.5109 283.753 71.4236 282.914C69.5634 281.479 69.3823 280.815 68.326 271.518C67.7094 266.088 66.9873 261.363 66.7218 261.018C66.4571 260.673 66.2224 264.669 66.2022 269.898ZM114.476 247.377C112.15 249.232 107.567 255.53 106.196 258.757C105.452 260.509 105.541 261.04 106.701 261.742C107.932 262.487 108.401 262.055 110.392 258.343C114.861 250.012 120.685 245.384 127.032 245.121C129.506 245.018 134.249 243.81 139.339 241.985L147.62 239.014L135.608 241.135C122.412 243.464 117.602 244.885 114.476 247.377ZM123.57 248.43C122.54 249.739 121.041 252.644 120.24 254.886C118.844 258.794 118.864 259.025 120.713 260.451C122.826 262.082 123.799 262.241 122.545 260.752C122.08 260.201 122.922 257.31 124.565 253.819C128.203 246.083 127.675 243.219 123.57 248.43ZM370.351 161.988C367.465 163.729 358.948 171.218 359.567 171.472C359.72 171.534 362.653 169.985 366.084 168.028C369.516 166.072 376.03 163.183 380.562 161.608C387.571 159.172 389.604 158.793 394.193 159.068C408.072 159.9 422.81 166.522 435.273 177.525C440.228 181.9 441.286 182.117 436.833 177.846C427.81 169.189 412.078 160.344 401.887 158.199C390.658 155.835 378.041 157.351 370.351 161.988ZM77.1266 266.347C77.6988 267.077 76.8632 269.198 74.555 272.871C72.1264 276.736 71.3201 278.845 71.7731 280.152C72.7906 283.087 73.8003 281.901 76.1948 274.963C77.427 271.392 78.8249 268.558 79.3003 268.663C80.6517 268.966 79.8719 267.612 77.9854 266.38C76.8766 265.656 76.5755 265.645 77.1266 266.347ZM177.166 235.486C183.052 236.144 198.47 232.275 197.789 230.311C197.306 228.917 195.156 229.159 185.945 231.649C182.188 232.665 177.646 233.829 175.853 234.236L172.593 234.975L177.166 235.486ZM83.6955 274.046C85.4546 276.29 86.9882 278.396 87.1028 278.726C87.3158 279.341 85.7733 280.581 78.7966 285.409L74.8372 288.148L76.7748 292.55C78.5912 296.676 81.034 298.977 80.7142 296.26C80.6016 295.304 81.6158 295.219 85.4145 295.871C88.0786 296.328 91.3067 296.59 92.589 296.452C94.2418 296.274 95.0897 296.692 95.5044 297.888C96.5681 300.956 97.8157 310.11 97.1989 310.324C96.8661 310.439 92.7445 308.28 88.0396 305.527L79.4861 300.52L79.068 304.461C78.8384 306.629 78.9146 308.882 79.2374 309.468C79.5601 310.055 83.0464 313.594 86.9838 317.333C90.9211 321.073 93.8122 323.653 93.4088 323.067C89.8203 317.862 83.4337 309.992 83.1148 310.383C82.8958 310.651 82.3599 309.844 81.924 308.586C81.4881 307.329 81.4527 306.372 81.8444 306.46C82.2368 306.547 82.5878 306.111 82.6242 305.491C82.6885 304.419 83.3933 304.705 88.7543 307.976C89.5125 308.439 91.8287 309.417 93.9028 310.151L97.6728 311.483L97.4575 314.952C97.1007 320.698 95.424 325.88 92.744 329.523C89.768 333.566 89.6814 333.618 88.593 331.99C87.9647 331.05 87.887 331.186 88.2794 332.539C88.7532 334.174 88.4106 334.471 84.4843 335.833C79.3659 337.607 79.8308 338.342 77.0347 324.055C75.2322 314.844 75.2264 314.298 76.9327 314.049C78.4171 313.832 78.5704 313.496 77.7959 312.152C77.1196 310.977 76.1228 310.653 74.2498 310.999C72.8176 311.262 71.6012 311.55 71.5465 311.635C71.4919 311.721 73.1231 317.448 75.1715 324.36C78.8133 336.652 78.855 336.93 77.0655 336.989C76.0591 337.023 74.1443 336.754 72.8103 336.392C67.7081 335.008 67.8342 335.494 73.1899 337.863C76.2467 339.214 79.9181 340.389 81.3479 340.474C83.9372 340.627 85.6786 342.214 83.1674 342.131C82.4419 342.108 74.2785 344.52 65.0258 347.491C47.642 353.074 48.8961 353.083 70.9592 347.535C76.2961 346.193 84.5013 344.186 89.1932 343.076C96.436 341.361 98.0747 340.73 100.051 338.894L102.378 336.731L99.2163 337.754L96.0546 338.777L98.6299 336.063C101.806 332.717 103.437 329.837 104.975 324.86C106.438 320.125 106.25 319.495 103.645 320.398C102.053 320.95 101.58 320.768 101.537 319.59C101.083 307.171 100.832 305.65 97.7899 296.934C96.0581 291.972 93.78 286.628 92.7277 285.059C91.6747 283.49 90.0398 280.891 89.0935 279.285C86.6815 275.191 83.7707 271.692 82.0003 270.759C80.9625 270.212 81.488 271.231 83.6955 274.046ZM367.886 173.045C368.309 174.578 387.188 211.011 388.4 212.633C389.154 213.641 389.826 213.85 390.327 213.233C390.927 212.492 389.23 208.873 382.626 196.808C375.347 183.511 367.11 170.231 367.886 173.045ZM115.92 261.632C117.18 262.782 121.896 265.955 129.59 270.828C135.963 274.865 144.639 277.326 143.782 274.854C143.636 274.433 142.242 273.905 140.685 273.68C136.494 273.074 130.207 270.207 123.195 265.704C116.269 261.255 114.298 260.152 115.92 261.632ZM58.5981 282.088C56.7683 283.684 58.4396 284.721 60.9147 283.526C62.8251 282.603 64.2221 282.626 66.8443 283.625C70.3578 284.962 69.8574 284.001 65.9062 281.821C64.5036 281.047 63.2313 280.947 62.426 281.548C61.7283 282.069 61.0262 282.118 60.8665 281.657C60.5595 280.772 59.9806 280.882 58.5981 282.088ZM389.637 187.615C392.47 205.585 393.028 210.245 391.987 207.241C391.788 206.666 391.49 206.471 391.326 206.809C391.162 207.147 391.678 208.023 392.472 208.756C393.955 210.125 395.976 209.98 396.311 208.48C396.91 205.797 388.02 167.295 386.892 167.686C386.685 167.758 387.92 176.726 389.637 187.615ZM69.2708 289.208C73.7179 295.886 75.2319 302.926 73.0686 306.872C71.7515 309.275 70.0441 309.13 66.2253 306.293C63.0566 303.939 62.9044 304.164 59.0102 316.97C57.3669 322.375 56.5032 326.01 57.0909 325.048C62.2443 316.612 64.9438 311.489 65.2486 309.569L65.6111 307.293L68.5788 308.859C75.298 312.407 79.2234 306.713 76.1562 297.866C74.8449 294.084 70.7812 288.151 68.3469 286.465C66.8812 285.45 66.9973 285.795 69.2708 289.208ZM43.6855 296.761C46.9929 297.56 49.412 297.608 58.5109 297.05C59.7289 296.975 59.8422 296.46 59.1027 294.358C58.4691 292.558 58.0919 292.167 57.8754 293.087C57.6138 294.201 56.4062 294.504 50.407 294.96C46.4703 295.259 42.4845 295.579 41.5489 295.67C40.6133 295.76 41.5748 296.251 43.6855 296.761ZM91.9598 288.394C93.7095 292.551 94.6172 295.491 94.1408 295.458C89.5969 295.147 78.7158 292.57 78.4268 291.737C78.223 291.149 79.3162 289.454 80.8571 287.97C82.398 286.486 84.4775 284.212 85.479 282.917C86.4806 281.622 87.6747 280.723 88.132 280.919C88.5893 281.115 90.312 284.478 91.9598 288.394ZM355.748 188.155C356.145 188.742 362.063 196.508 368.897 205.411C375.732 214.315 381.217 221.82 381.085 222.09C380.954 222.361 374.231 220.579 366.145 218.129C348.615 212.819 347.794 212.636 352.109 215.001C356.227 217.258 384.311 232.961 385.227 233.518C385.593 233.741 385.815 231.387 385.721 228.289L385.551 222.655L376.741 211.93C371.896 206.031 368.013 201.039 368.111 200.835C368.211 200.632 372.203 204.559 376.985 209.562C386.596 219.619 386.323 219.368 386.724 218.539C386.882 218.215 379.814 211.005 371.018 202.518C362.222 194.03 355.35 187.567 355.748 188.155ZM136.23 266.744C140.726 270.682 149.163 274.734 155.636 276.062C161.023 277.167 184.284 277.902 184.731 276.981C184.806 276.826 178.363 276.077 170.413 275.314C152.641 273.61 145.899 272.086 140.241 268.49C134.175 264.634 133.473 264.328 136.23 266.744ZM405.028 191.956L404.164 211.368L407.446 213.459C409.252 214.609 412.028 216.944 413.616 218.649C415.204 220.352 416.571 221.591 416.653 221.402C417.829 218.687 419.774 211.482 419.453 211.031C419.219 210.703 420.206 208.088 421.647 205.22C423.088 202.353 425.209 197.52 426.36 194.48L428.452 188.953L433.071 194.417C438.186 200.469 444.134 209.195 443.722 210.045C443.576 210.346 438.202 214.108 431.78 218.404L420.103 226.215L423.354 234.685C425.141 239.344 426.759 243.237 426.948 243.338C427.138 243.438 432.598 243.05 439.082 242.475C445.567 241.9 452.37 241.314 454.202 241.173L457.531 240.918L458.796 246.078C460.412 252.659 461.867 266.537 460.974 266.847C460.599 266.977 452.809 262.925 443.661 257.843C428.851 249.618 427.043 248.823 427.172 250.598C427.387 253.556 426.57 258.738 425.497 261.235C424.553 263.43 424.571 263.451 440.271 278.829L455.99 294.224L454.058 297.528C451.908 301.206 446.313 307.956 445.038 308.411C444.555 308.583 439.979 300.451 433.968 288.738C428.334 277.757 423.318 268.186 422.823 267.471C422.154 266.506 421.486 266.456 420.227 267.279C419.295 267.89 416.944 268.392 415.002 268.396L411.472 268.403L411.954 270.984C412.219 272.403 415.161 282.701 418.493 293.868C421.824 305.035 424.504 314.253 424.45 314.354C424.232 314.756 407.783 313.742 406.864 313.271C406.254 312.957 406.274 304.029 406.918 289.837C407.955 266.965 407.953 266.908 405.845 265.592C404.684 264.866 402.072 262.625 400.043 260.61L396.352 256.948L391.258 271.569C388.457 279.61 385.297 288.666 384.237 291.693L382.31 297.197L384.632 293.773C385.91 291.89 390.008 285.607 393.741 279.809C397.474 274.013 400.68 269.344 400.866 269.433C401.052 269.524 401.6 273.999 402.084 279.378C402.569 284.756 403.511 294.342 404.178 300.68C405.374 312.037 405.36 312.211 403.244 312.795C402.063 313.121 395.089 313.178 387.748 312.922C304.443 310.016 206.506 316.429 137.605 329.303C124.568 331.739 100.814 338.729 100.021 340.362C99.8185 340.782 100.234 340.923 100.946 340.676C103.89 339.655 134.261 333.779 150.117 331.163C286.571 308.644 423.412 315.972 522.101 351.08C545.003 359.227 570.214 371.796 585.84 382.858C589.525 385.467 592.422 387.263 592.278 386.85C591.673 385.103 585.522 377.937 580.944 373.643C578.228 371.097 572.186 366.25 567.518 362.872C556.503 354.903 556.758 355.139 560.052 355.924C574.325 359.32 593.883 366.154 607.68 372.566C616.907 376.854 616.585 376.298 605.944 369.565C592.174 360.852 567.597 349.867 535.32 337.997C530.069 336.067 532.249 336.078 547.327 338.059C561.316 339.896 571.527 341.734 580.84 344.087C590.028 346.41 587.961 345.227 575.209 340.864C547.479 331.376 501.85 321.895 467.712 318.526C459.069 317.674 456.29 316.826 459.028 315.877C461.128 315.149 465.927 310.194 469.116 305.459C477.209 293.447 480.296 275.873 477.887 255.528C477.236 250.023 475.863 245.076 471.482 232.432C465.312 214.633 460.843 205.975 451.84 194.382C446.703 187.768 440.92 181.277 440.655 181.826C440.557 182.026 442.348 184.286 444.633 186.847C446.919 189.409 449.974 193.171 451.423 195.207L454.058 198.909L448.582 200.808C444.072 202.371 442.938 202.493 442.153 201.498C439.757 198.463 432.619 190.912 431.98 190.738C431.59 190.632 430.699 189.754 430.001 188.787C428.522 186.738 416.263 177.2 414.643 176.838C414.038 176.702 414.636 177.372 415.972 178.325C420.205 181.345 426.161 186.635 426.531 187.703C426.728 188.269 424.108 192.979 420.71 198.172C417.312 203.364 413.795 209.01 412.892 210.719C411.426 213.495 411.096 213.732 409.794 212.945C408.569 212.202 408.363 210.496 408.49 202.149C408.649 191.803 407.257 172.049 406.391 172.364C406.116 172.463 405.503 181.281 405.028 191.956ZM410.609 174.742C410.666 174.904 411.498 175.308 412.459 175.639C414.042 176.183 414.06 176.146 412.653 175.239C411.173 174.288 410.385 174.096 410.609 174.742ZM51.6732 306.518C49.4425 309.512 47.7793 312.04 47.9773 312.137C48.5118 312.396 55.6942 307.134 57.7446 304.982C59.7504 302.877 59.2785 299.698 57.0866 300.549C56.3415 300.839 53.9048 303.525 51.6732 306.518ZM458.229 172.146C484.182 193.193 504.264 223.019 510.766 250.171C512.03 255.454 513.233 262.29 513.439 265.362L513.812 270.947L504.267 274.242C499.017 276.055 495.232 277.663 495.856 277.817C497.099 278.124 516.561 277.804 520.204 277.417C522.703 277.152 522.882 276.056 521.846 267.359C518.065 235.6 494.3 198.32 462.279 173.914C452.105 166.16 449.383 164.97 458.229 172.146ZM66.3356 314.956C66.161 317.718 68.0383 331.009 68.6439 331.303C68.8965 331.425 69.0737 327.585 69.0387 322.768C68.989 316.024 68.6865 313.871 67.7226 313.403C66.7598 312.936 66.4404 313.293 66.3356 314.956ZM483.325 173.708C481.948 176.548 483.238 180.88 485.253 180.181C486.014 179.917 486.71 178.786 486.799 177.667C487.002 175.123 489.374 173.869 495.257 173.198C499.95 172.662 517.423 173.583 520.847 174.546C522.562 175.03 522.223 175.276 517.689 176.849L512.609 178.611L518.401 179.24C522.475 179.682 525.378 179.458 528.19 178.483C534.76 176.205 544.684 178.573 546.138 182.766C546.526 183.887 547.471 183.971 550.753 183.175C555.473 182.031 559.92 183.572 561.198 186.796C561.74 188.162 564.086 189.592 569.264 191.707C573.28 193.349 578.886 196.061 581.724 197.733C584.561 199.406 587.245 200.785 587.69 200.797C588.134 200.81 589.171 199.946 589.994 198.879C592.851 195.175 589.997 191.828 580.058 187.229C561.654 178.713 545.033 174.033 524.245 171.515C507.712 169.512 494.969 169.139 488.885 170.479C485.007 171.333 484.27 171.761 483.325 173.708ZM78.0589 317.619C78.5406 318.299 80.7289 321.499 82.9215 324.732C85.1145 327.964 87.0135 330.394 87.1411 330.13C87.348 329.705 83.9705 323.123 80.7026 317.582C80.0483 316.473 78.9961 315.756 78.351 315.979C77.6101 316.236 77.5031 316.835 78.0589 317.619ZM372.579 222.982C376.844 224.362 377.836 224.97 376.802 225.567C375.941 226.066 373.742 225.475 370.734 223.935C368.139 222.607 366.239 221.444 366.51 221.349C366.782 221.255 369.513 221.989 372.579 222.982ZM389.942 216.195C385.54 221.106 385.668 233.881 390.222 244.348C397.171 260.314 407.959 268.962 417.013 265.823C420.537 264.601 420.974 264.152 422.695 259.99C425.248 253.814 424.908 247.781 421.449 237.909C416.648 224.204 407.781 214.341 399.1 213.05C395.998 212.588 391.919 213.989 389.942 216.195ZM400.561 216.758C401.652 217.004 401.558 217.137 400.162 217.315C398.423 217.539 398.498 217.666 401.66 219.877C415.463 229.528 423.199 259.722 412.792 263.33C409.207 264.573 405.722 263.109 400.992 258.376C389.604 246.979 384.607 224.927 391.995 218.676C393.543 217.368 398.425 216.274 400.561 216.758ZM504.138 198.307C524.776 213.651 532.477 215.321 557.755 209.936C570.402 207.241 584.807 203.017 584.488 202.097C583.946 200.536 558.628 192.366 556.994 193.226C554.661 194.453 552.194 194.355 549.236 192.92C546.184 191.439 545.244 191.41 541.396 192.683C536.492 194.304 529.813 193.521 526.456 190.932C524.987 189.799 521.784 189.509 512.624 189.682C506.066 189.806 499.235 190.132 497.443 190.406L494.184 190.906L504.138 198.307ZM353.783 241.58C354.593 241.824 361.925 243.291 370.077 244.837C378.229 246.385 384.977 247.888 385.072 248.176C385.168 248.466 380.681 254.242 375.101 261.012C369.52 267.782 365.034 273.364 365.132 273.416C365.231 273.467 371.719 269.186 379.553 263.901C393.156 254.724 393.759 254.213 392.985 252.495C392.54 251.505 390.94 247.908 389.431 244.501L386.686 238.304L370.786 239.631C362.04 240.361 354.306 240.997 353.598 241.046C352.453 241.124 352.474 241.184 353.783 241.58ZM452.264 225.971C454.95 232.087 457.127 237.737 457.102 238.527C457.063 239.708 454.374 239.455 441.991 237.108C433.705 235.537 426.907 233.964 426.884 233.612C426.861 233.261 430.879 228.071 435.812 222.079L444.782 211.184L446.081 213.018C446.795 214.027 449.578 219.856 452.264 225.971ZM447.543 264.267L461.424 268.483L461.04 273.697C460.599 279.694 457.43 292.116 456.266 292.417C455.597 292.59 430.998 261.441 430.366 259.619C430.243 259.264 430.934 259.216 431.902 259.512C432.87 259.809 439.908 261.948 447.543 264.267ZM637.131 189.12C637.29 189.577 637.058 189.871 636.616 189.772C636.174 189.673 630.391 192.808 623.765 196.74C594.172 214.299 570.167 223.557 540.951 228.681C535.94 229.559 531.942 230.568 532.065 230.923C532.59 232.437 560.964 245.379 567.854 247.245C596.411 254.985 618.58 249.154 640.354 228.173C643.531 225.112 645.956 222.523 645.744 222.42C645.532 222.318 642.486 224.103 638.975 226.388C630.37 231.988 615.269 237.421 608.18 237.469C601.33 237.513 594.788 235.788 590.132 232.708L586.118 230.053L592.076 227.368C604.18 221.912 615.638 214.304 624.932 205.549C629.131 201.594 639.63 188.721 639.339 187.882C639.261 187.657 638.668 187.656 638.02 187.881C637.373 188.105 636.973 188.663 637.131 189.12ZM632.104 194.905C625.492 201.357 614.502 209.684 605.823 214.82C596.721 220.205 582.392 226.736 577.791 227.596C575.827 227.964 574.328 228.568 574.462 228.939C574.595 229.31 577.346 231.394 580.575 233.57C586.318 237.439 593.568 240.329 599.562 241.138C604.479 241.801 603.202 242.299 597.744 241.847C590.11 241.215 580.733 238.526 570.955 234.165L562.172 230.247L578.499 224.109C590.259 219.687 597.083 216.676 602.893 213.346C610.236 209.137 625.097 198.818 631.944 193.176C636.986 189.02 637.081 190.048 632.104 194.905ZM431.271 291.012C441.108 305.3 443.874 309.689 443.197 309.941C443.091 309.981 441.089 311.05 438.749 312.316C435.473 314.09 433.478 314.664 430.069 314.817C425.964 315.003 425.618 314.855 425.307 312.778C425.123 311.547 423.657 302.403 422.048 292.457C420.439 282.512 419.358 274.489 419.644 274.628C419.931 274.767 425.163 282.139 431.271 291.012ZM492.161 301.814C490.719 305.752 489.686 309.025 489.867 309.09C490.254 309.227 506.447 306.92 513.597 305.707C536.628 301.803 575.189 289.541 595.55 279.646C614.7 270.34 627.583 261.906 638.013 251.847C641.189 248.785 643.614 246.194 643.402 246.092C643.19 245.989 640.003 247.938 636.319 250.422C618.394 262.51 599.339 271.156 568.625 281.139C537.579 291.229 514.913 295.473 496.14 294.71C495.209 294.672 493.964 296.895 492.161 301.814Z" fill="#1F92E4"/>
<path d="M150.699 354.255H155.199V381.84H172.254V385.755H150.699V354.255ZM191.066 386.115C187.886 386.115 185.021 385.425 182.471 384.045C179.921 382.635 177.911 380.7 176.441 378.24C175.001 375.78 174.281 373.035 174.281 370.005C174.281 366.975 175.001 364.23 176.441 361.77C177.911 359.31 179.921 357.39 182.471 356.01C185.021 354.6 187.886 353.895 191.066 353.895C194.216 353.895 197.066 354.6 199.616 356.01C202.166 357.39 204.161 359.31 205.601 361.77C207.041 364.2 207.761 366.945 207.761 370.005C207.761 373.065 207.041 375.825 205.601 378.285C204.161 380.715 202.166 382.635 199.616 384.045C197.066 385.425 194.216 386.115 191.066 386.115ZM191.066 382.11C193.376 382.11 195.446 381.585 197.276 380.535C199.136 379.485 200.591 378.045 201.641 376.215C202.721 374.355 203.261 372.285 203.261 370.005C203.261 367.725 202.721 365.67 201.641 363.84C200.591 361.98 199.136 360.525 197.276 359.475C195.446 358.425 193.376 357.9 191.066 357.9C188.756 357.9 186.656 358.425 184.766 359.475C182.906 360.525 181.436 361.98 180.356 363.84C179.306 365.67 178.781 367.725 178.781 370.005C178.781 372.285 179.306 374.355 180.356 376.215C181.436 378.045 182.906 379.485 184.766 380.535C186.656 381.585 188.756 382.11 191.066 382.11ZM228.724 386.115C225.574 386.115 222.724 385.425 220.174 384.045C217.654 382.635 215.674 380.715 214.234 378.285C212.794 375.825 212.074 373.065 212.074 370.005C212.074 366.945 212.794 364.2 214.234 361.77C215.674 359.31 217.669 357.39 220.219 356.01C222.769 354.6 225.619 353.895 228.769 353.895C231.229 353.895 233.479 354.315 235.519 355.155C237.559 355.965 239.299 357.18 240.739 358.8L237.814 361.635C235.444 359.145 232.489 357.9 228.949 357.9C226.609 357.9 224.494 358.425 222.604 359.475C220.714 360.525 219.229 361.98 218.149 363.84C217.099 365.67 216.574 367.725 216.574 370.005C216.574 372.285 217.099 374.355 218.149 376.215C219.229 378.045 220.714 379.485 222.604 380.535C224.494 381.585 226.609 382.11 228.949 382.11C232.459 382.11 235.414 380.85 237.814 378.33L240.739 381.165C239.299 382.785 237.544 384.015 235.474 384.855C233.434 385.695 231.184 386.115 228.724 386.115ZM266.482 377.88H249.742L246.277 385.755H241.642L255.907 354.255H260.362L274.672 385.755H269.947L266.482 377.88ZM264.907 374.28L258.112 358.845L251.317 374.28H264.907ZM279.371 354.255H283.871V381.84H300.926V385.755H279.371V354.255ZM306.09 354.255H310.59V385.755H306.09V354.255ZM343.555 381.84V385.755H317.23V382.695L337.03 358.17H317.545V354.255H342.97V357.315L323.26 381.84H343.555ZM369.665 377.88H352.925L349.46 385.755H344.825L359.09 354.255H363.545L377.855 385.755H373.13L369.665 377.88ZM368.09 374.28L361.295 358.845L354.5 374.28H368.09ZM396.639 385.98C393.549 385.98 390.759 385.29 388.269 383.91C385.809 382.53 383.859 380.625 382.419 378.195C381.009 375.765 380.304 373.035 380.304 370.005C380.304 366.975 381.009 364.245 382.419 361.815C383.859 359.385 385.809 357.48 388.269 356.1C390.759 354.72 393.549 354.03 396.639 354.03C398.919 354.03 401.019 354.405 402.939 355.155C404.859 355.875 406.494 356.955 407.844 358.395L406.404 359.88C403.884 357.39 400.659 356.145 396.729 356.145C394.089 356.145 391.689 356.745 389.529 357.945C387.369 359.145 385.674 360.81 384.444 362.94C383.214 365.04 382.599 367.395 382.599 370.005C382.599 372.615 383.214 374.985 384.444 377.115C385.674 379.215 387.369 380.865 389.529 382.065C391.689 383.265 394.089 383.865 396.729 383.865C400.629 383.865 403.854 382.605 406.404 380.085L407.844 381.57C406.494 383.01 404.844 384.105 402.894 384.855C400.974 385.605 398.889 385.98 396.639 385.98ZM434.181 376.89H415.911L411.906 385.755H409.431L423.921 354.255H426.216L440.706 385.755H438.231L434.181 376.89ZM433.326 374.955L425.046 356.775L416.811 374.955H433.326ZM468.295 385.755L460.78 375.225C459.67 375.375 458.65 375.45 457.72 375.45H448.72V385.755H446.425V354.255H457.72C461.68 354.255 464.785 355.2 467.035 357.09C469.285 358.95 470.41 361.545 470.41 364.875C470.41 367.365 469.765 369.465 468.475 371.175C467.215 372.855 465.4 374.04 463.03 374.73L470.905 385.755H468.295ZM457.72 373.425C461.08 373.425 463.645 372.69 465.415 371.22C467.185 369.72 468.07 367.605 468.07 364.875C468.07 362.145 467.185 360.045 465.415 358.575C463.645 357.075 461.08 356.325 457.72 356.325H448.72V373.425H457.72Z" fill="#1F92E4"/>
</svg>
