<svg width="402" height="190" viewBox="0 0 402 190" fill="none" xmlns="http://www.w3.org/2000/svg">
<path fill-rule="evenodd" clip-rule="evenodd" d="M119.353 17.1404C91.9737 30.1306 65.1018 49.8904 36.3457 78.1767C32.3052 82.1516 28.6475 85.8699 28.2174 86.4405C27.5007 87.3916 27.5964 87.4221 29.3717 86.8066C30.5497 86.3982 32.4489 84.96 34.2218 83.1339C51.263 65.5773 75.2507 45.6685 94.071 33.4605C111.524 22.1398 124.997 15.6962 143.833 9.66315C162.065 3.82311 174.887 1.75485 194.384 1.50998C209.938 1.31416 223.694 2.51499 239.744 5.46965C247.492 6.89607 255.976 8.06671 254.941 7.56662C253.421 6.83245 236.255 3.72959 226.228 2.37677C198.939 -1.305 176.654 -0.516066 153.697 4.94497C146.219 6.7238 126.696 13.6563 119.353 17.1404ZM118.054 25.9153C117.293 26.453 118.9 26.1875 122.707 25.1466C129.611 23.2591 137.674 22.0838 143.496 22.1149C154.846 22.1765 170.981 25.3182 185.557 30.3045C191.896 32.4731 192.589 32.5882 194.156 31.7358C195.093 31.2256 197.504 29.9157 199.513 28.8249C202.03 27.4582 210.281 24.3746 226.029 18.9146C238.604 14.5551 248.844 10.8496 248.786 10.6806C248.663 10.3266 235.53 13.7947 224.395 17.1214C216.171 19.5785 202.015 25.3425 195.242 28.992L191.022 31.266L181.778 28.2808C162.468 22.0446 146.631 19.8331 132.704 21.4272C127.961 21.9701 120.331 24.3075 118.054 25.9153ZM103.984 33.4632C95.8684 38.4109 86.4971 50.7638 78.0963 67.5868C73.8731 76.0445 74.736 75.2047 81.7258 64.056C92.2462 47.2749 97.7676 40.3965 105.922 33.9099C107.856 32.3719 109.408 31.0273 109.372 30.9219C109.247 30.5628 107.012 31.6167 103.984 33.4632ZM142.606 32.7527C138.156 36.0441 136.379 39.9909 138.09 42.7825C139.257 44.686 140.01 44.7247 139.359 42.848C138.69 40.9196 139.979 37.967 142.659 35.2864C144.199 33.7458 145.55 32.9908 148.769 31.8725C153.697 30.1605 157.442 30.264 163.08 32.2687L166.719 33.5627L163.901 32.1121C156.59 28.3497 148.219 28.6018 142.606 32.7527ZM146.366 43.3047C149.321 44.9949 153.596 45.0166 162.218 43.3834C165.104 42.8375 168.468 42.4743 169.696 42.5773C171.769 42.751 172.411 42.5303 178.704 39.4778C182.431 37.67 185.631 35.8791 185.816 35.4971C186.534 34.017 183.842 34.837 176.978 38.1904C170.74 41.2377 169.732 41.6057 168.438 41.3069C167.084 40.9945 163.499 41.4401 157.434 42.6758C154.141 43.3464 149.74 43.449 147.1 42.9171L144.922 42.4781L146.366 43.3047ZM6.07286 97.7363C5.37674 98.4111 5.64299 98.4329 7.42953 97.8465C12.0786 96.3197 25.9778 93.3259 40.6707 90.6867C57.6216 87.642 61.9645 86.6914 76.9831 82.7394C94.2223 78.2027 112.177 72.5479 122.561 68.3847C133.95 63.8183 133.384 64.0961 149.346 55.2396C163.956 47.1339 165.708 46.0507 165.061 45.5241C164.236 44.8522 161.443 46.162 150.319 52.4364C144.366 55.7948 137.172 59.7318 134.334 61.1854C126.997 64.9418 105.632 72.7939 92.4943 76.5623C66.8919 83.9059 57.9868 85.9809 33.3203 90.3531C20.7135 92.5874 7.76391 96.0965 6.07286 97.7363ZM213.471 26.3735C213.385 26.76 214.305 26.9339 215.723 26.798C230.046 25.425 239.282 27.0334 251.251 32.9861C255.068 34.8845 256.752 35.5342 255.267 34.536C248.606 30.058 238.746 26.4113 230.432 25.3514C223.68 24.4907 213.758 25.0885 213.471 26.3735ZM5.95146 102.1C5.00447 102.881 4.15263 103.68 4.05812 103.875C3.96362 104.069 6.17423 103.456 8.97095 102.511C15.1288 100.432 18.1796 100.594 23.9043 103.303C27.4791 104.995 27.5306 105.001 25.1882 103.457C18.4081 98.9875 10.4112 98.4236 5.95146 102.1ZM207.242 35.2569C197.207 41.4152 191.212 51.4729 189.404 65.1851C188.728 70.3057 188.898 78.8276 189.787 84.443C190.734 90.42 195.937 104.969 199.154 110.638C200.569 113.129 201.651 115.322 201.56 115.51C201.468 115.699 199.061 116.117 196.209 116.44C193.358 116.762 184.969 117.711 177.567 118.547C155.405 121.052 135.387 124.568 111.371 130.174C99.5039 132.944 74.8003 139.33 72.3969 140.249C71.5179 140.585 77.5408 139.647 85.7808 138.164C132.771 129.709 175.823 125.791 208.925 126.959C211.496 127.05 213.758 127.069 213.952 127.002C214.145 126.935 213.356 125.581 212.197 123.993C207.271 117.24 204.015 110.865 200.77 101.62L197.647 92.721L196.225 93.2111C194.836 93.6903 194.78 93.6324 193.752 90.669C191.384 83.8374 190.503 73.6837 191.562 65.4018C194.342 43.6432 210.564 29.8377 230.248 32.4792C236.544 33.3237 241.768 35.2214 248.585 39.1397C252.056 41.1352 254.988 42.7362 255.101 42.6973C255.696 42.4908 245.438 36.3037 242.002 34.7972C229.266 29.2129 216.822 29.3776 207.242 35.2569ZM6.41423 106.101C6.64773 106.695 6.81264 106.775 6.83468 106.306C6.85466 105.881 6.68145 105.441 6.45044 105.329C6.21943 105.217 6.20319 105.564 6.41423 106.101ZM13.5267 108.024C15.1115 116.673 15.5925 118.388 16.2877 117.856C16.76 117.493 16.4922 115.774 15.2689 111.329C13.2103 103.848 12.5227 102.542 13.5267 108.024ZM7.52072 107.744C7.66182 108.146 9.16667 110.989 10.8645 114.061C12.5623 117.134 14.0181 119.835 14.0994 120.064C14.1812 120.294 14.435 120.251 14.6641 119.97C15.1976 119.315 13.2945 115.427 10.1869 110.823C7.7807 107.258 7.05465 106.419 7.52072 107.744ZM3.10492 111.569C3.13456 111.733 5.04397 114.307 7.34863 117.29C9.6531 120.273 11.4876 122.818 11.426 122.946C11.3638 123.073 10.0208 122.762 8.44209 122.254C6.8629 121.746 4.40779 120.966 2.98623 120.522L0.401078 119.715L3.61277 121.643C5.37898 122.704 6.89771 123.42 6.98783 123.234C7.07813 123.049 8.33436 123.264 9.77966 123.711C13.1191 124.746 13.5866 123.956 11.3403 121.074C10.4106 119.882 9.51491 118.544 9.34876 118.101C9.05395 117.314 2.99892 110.979 3.10492 111.569ZM19.4808 112.692L19.4562 118.952L21.6809 120.933C22.9042 122.022 23.9764 122.767 24.0623 122.59C24.1487 122.411 23.6343 121.814 22.9184 121.262C21.6937 120.317 21.5745 119.879 20.8791 113.759C20.4731 110.184 19.9977 107.073 19.8229 106.846C19.6486 106.619 19.4941 109.25 19.4808 112.692ZM51.2625 97.8653C49.7312 99.0861 46.7141 103.233 45.8116 105.358C45.3213 106.511 45.3805 106.86 46.1437 107.322C46.9545 107.813 47.2629 107.529 48.5738 105.085C51.5159 99.5996 55.3503 96.5528 59.5293 96.3797C61.1583 96.3121 64.2805 95.5168 67.6317 94.3149L73.0836 92.3594L65.1753 93.7554C56.4874 95.2886 53.3207 96.2244 51.2625 97.8653ZM57.2501 98.5585C56.5718 99.42 55.5848 101.333 55.0578 102.809C54.1382 105.382 54.1514 105.533 55.369 106.473C56.7604 107.546 57.401 107.651 56.5748 106.671C56.269 106.308 56.8235 104.404 57.9048 102.106C60.2999 97.0132 59.9523 95.1275 57.2501 98.5585ZM219.723 41.6479C217.822 42.7936 212.215 47.7243 212.623 47.8915C212.723 47.9325 214.654 46.9124 216.913 45.6243C219.173 44.3363 223.462 42.4343 226.445 41.3977C231.06 39.7937 232.398 39.5444 235.42 39.7252C244.557 40.2733 254.26 44.6327 262.465 51.877C265.727 54.7573 266.424 54.9001 263.492 52.088C257.552 46.3884 247.194 40.5652 240.485 39.1534C233.092 37.597 224.786 38.5949 219.723 41.6479ZM26.6731 110.354C27.0498 110.835 26.4997 112.231 24.98 114.649C23.3811 117.194 22.8503 118.583 23.1485 119.443C23.8184 121.375 24.4831 120.595 26.0596 116.027C26.8709 113.676 27.7912 111.81 28.1042 111.879C28.9939 112.079 28.4805 111.187 27.2385 110.376C26.5085 109.9 26.3102 109.892 26.6731 110.354ZM92.5356 90.0365C96.4107 90.4694 106.562 87.9225 106.113 86.6297C105.795 85.7115 104.38 85.8711 98.3158 87.5104C95.8419 88.1794 92.8519 88.9457 91.6714 89.2132L89.5251 89.7003L92.5356 90.0365ZM30.9979 115.423C32.156 116.9 33.1657 118.287 33.2411 118.504C33.3814 118.909 32.3658 119.726 27.7726 122.904L25.1658 124.707L26.4415 127.606C27.6373 130.322 29.2456 131.837 29.0351 130.048C28.9609 129.419 29.6287 129.363 32.1296 129.792C33.8835 130.093 36.0088 130.265 36.853 130.174C37.9412 130.058 38.4995 130.332 38.7725 131.12C39.4728 133.14 40.2942 139.166 39.888 139.307C39.669 139.383 36.9554 137.962 33.8578 136.149L28.2265 132.853L27.9512 135.448C27.8001 136.875 27.8502 138.358 28.0628 138.744C28.2753 139.13 30.5705 141.46 33.1627 143.922C35.755 146.384 37.6584 148.083 37.3928 147.697C35.0302 144.27 30.8255 139.089 30.6155 139.346C30.4713 139.523 30.1185 138.991 29.8315 138.163C29.5446 137.335 29.5213 136.706 29.7791 136.763C30.0375 136.821 30.2685 136.534 30.2925 136.126C30.3349 135.42 30.7989 135.608 34.3284 137.762C34.8276 138.066 36.3525 138.71 37.718 139.193L40.2 140.07L40.0583 142.354C39.8234 146.137 38.7195 149.549 36.9551 151.947C34.9958 154.609 34.9388 154.644 34.2222 153.572C33.8085 152.953 33.7574 153.042 34.0157 153.933C34.3277 155.01 34.1021 155.205 31.5172 156.101C28.1474 157.27 28.4534 157.753 26.6126 148.347C25.4259 142.283 25.4221 141.923 26.5454 141.76C27.5227 141.617 27.6237 141.396 27.1138 140.511C26.6685 139.737 26.0122 139.524 24.7791 139.752C23.8362 139.925 23.0353 140.114 22.9994 140.171C22.9634 140.227 24.0373 143.998 25.3859 148.549C27.7836 156.641 27.811 156.824 26.6329 156.863C25.9703 156.885 24.7096 156.708 23.8314 156.47C20.4723 155.559 20.5553 155.878 24.0813 157.438C26.0938 158.328 28.511 159.101 29.4523 159.157C31.1569 159.258 32.3035 160.303 30.6502 160.248C30.1725 160.233 24.798 161.821 18.7063 163.777C7.26135 167.453 8.08705 167.459 22.6127 163.806C26.1263 162.922 31.5284 161.601 34.6173 160.87C39.3858 159.741 40.4646 159.325 41.7657 158.117L43.2978 156.693L41.2162 157.367L39.1347 158.04L40.8302 156.253C42.9211 154.05 43.9947 152.154 45.0078 148.877C45.9706 145.76 45.847 145.345 44.1321 145.94C43.0838 146.303 42.7721 146.184 42.744 145.408C42.4455 137.232 42.2801 136.23 40.2771 130.492C39.137 127.225 37.6371 123.707 36.9444 122.673C36.2511 121.64 35.1747 119.93 34.5517 118.872C32.9637 116.177 31.0474 113.873 29.8818 113.259C29.1985 112.899 29.5445 113.57 30.9979 115.423ZM218.1 48.9274C218.378 49.9364 230.808 73.9227 231.606 74.9907C232.102 75.6544 232.545 75.7922 232.874 75.3856C233.269 74.898 232.152 72.5156 227.804 64.5724C223.012 55.8177 217.589 47.0746 218.1 48.9274ZM52.2133 107.25C53.043 108.007 56.1477 110.096 61.2131 113.304C65.4088 115.962 71.1212 117.583 70.5568 115.955C70.4608 115.678 69.5432 115.33 68.5177 115.182C65.7587 114.783 61.6194 112.896 57.0031 109.931C52.4433 107.002 51.1456 106.276 52.2133 107.25ZM14.4745 120.717C13.2698 121.768 14.3702 122.451 15.9997 121.664C17.2575 121.057 18.1772 121.072 19.9036 121.729C22.2167 122.61 21.8873 121.977 19.2859 120.542C18.3625 120.032 17.5249 119.967 16.9947 120.362C16.5353 120.705 16.0731 120.737 15.968 120.434C15.7659 119.851 15.3847 119.924 14.4745 120.717ZM232.42 58.5197C234.285 70.3503 234.653 73.4186 233.967 71.4411C233.836 71.0623 233.64 70.9339 233.532 71.1566C233.424 71.3788 233.763 71.9556 234.286 72.4383C235.263 73.3397 236.593 73.2442 236.814 72.2566C237.208 70.4904 231.356 45.1414 230.613 45.399C230.476 45.4463 231.289 51.3509 232.42 58.5197ZM21.5011 125.406C24.4289 129.802 25.4257 134.437 24.0014 137.035C23.1343 138.617 22.0102 138.521 19.496 136.653C17.4099 135.104 17.3096 135.252 14.7458 143.683C13.6639 147.242 13.0953 149.635 13.4822 149.001C16.875 143.447 18.6523 140.075 18.853 138.81L19.0916 137.312L21.0455 138.343C25.4692 140.679 28.0536 136.93 26.0342 131.105C25.1709 128.615 22.4955 124.709 20.8928 123.599C19.9279 122.931 20.0043 123.158 21.5011 125.406ZM4.65658 130.378C6.83401 130.904 8.42667 130.935 14.4171 130.568C15.219 130.519 15.2936 130.18 14.8068 128.796C14.3896 127.611 14.1412 127.354 13.9988 127.959C13.8265 128.693 13.0314 128.892 9.08177 129.192C6.49 129.389 3.86588 129.6 3.24988 129.659C2.63389 129.719 3.26693 130.042 4.65658 130.378ZM36.4388 124.869C37.5908 127.606 38.1883 129.542 37.8747 129.52C34.8831 129.315 27.7194 127.619 27.5291 127.07C27.3949 126.683 28.1146 125.567 29.1291 124.59C30.1436 123.613 31.5127 122.116 32.1721 121.264C32.8315 120.411 33.6176 119.819 33.9187 119.948C34.2198 120.077 35.3539 122.291 36.4388 124.869ZM210.108 58.875C210.37 59.2619 214.266 64.3743 218.765 70.2361C223.265 76.0979 226.876 81.0394 226.79 81.217C226.703 81.3952 222.277 80.2218 216.954 78.609C205.412 75.1129 204.872 74.9928 207.712 76.5496C210.424 78.0356 228.913 88.3737 229.517 88.741C229.757 88.8874 229.904 87.338 229.842 85.2982L229.73 81.5892L223.93 74.528C220.74 70.6444 218.184 67.3573 218.248 67.2232C218.313 67.0894 220.942 69.6748 224.09 72.9691C230.418 79.5904 230.238 79.4246 230.502 78.8793C230.606 78.6656 225.953 73.9187 220.161 68.3311C214.371 62.7433 209.846 58.4883 210.108 58.875ZM65.5848 110.615C68.5447 113.208 74.0998 115.876 78.3612 116.75C81.908 117.478 97.2218 117.962 97.5163 117.355C97.5654 117.253 93.3238 116.76 88.0901 116.258C76.3895 115.136 71.9507 114.132 68.2256 111.765C64.2316 109.227 63.77 109.025 65.5848 110.615ZM242.553 61.3778L241.984 74.1577L244.145 75.5345C245.333 76.2916 247.161 77.8291 248.207 78.9512C249.252 80.073 250.152 80.8886 250.206 80.7639C250.98 78.9767 252.261 74.2332 252.05 73.936C251.896 73.7201 252.546 71.9985 253.494 70.1102C254.443 68.2227 255.839 65.0406 256.597 63.0391L257.975 59.4004L261.015 62.9977C264.383 66.9822 268.299 72.7275 268.028 73.2869C267.932 73.4851 264.393 75.9615 260.166 78.7899L252.478 83.9326L254.618 89.5092C255.795 92.5765 256.86 95.1396 256.984 95.2059C257.109 95.272 260.704 95.0161 264.973 94.6375C269.242 94.2589 273.721 93.8734 274.927 93.7807L277.119 93.613L277.952 97.01C279.016 101.343 279.974 110.48 279.386 110.683C279.139 110.769 274.01 108.102 267.987 104.756C258.237 99.3402 257.047 98.8169 257.132 99.9856C257.273 101.933 256.736 105.345 256.029 106.989C255.408 108.434 255.419 108.447 265.756 118.572L276.105 128.708L274.833 130.883C273.417 133.304 269.733 137.748 268.894 138.048C268.576 138.161 265.564 132.808 261.606 125.096C257.897 117.866 254.594 111.565 254.268 111.094C253.828 110.459 253.388 110.426 252.56 110.968C251.946 111.37 250.398 111.701 249.119 111.703L246.795 111.708L247.113 113.407C247.287 114.342 249.224 121.121 251.418 128.473C253.611 135.825 255.375 141.894 255.34 141.96C255.196 142.225 244.367 141.558 243.761 141.247C243.36 141.041 243.373 135.163 243.797 125.82C244.48 110.761 244.478 110.724 243.091 109.857C242.326 109.38 240.607 107.904 239.271 106.578L236.841 104.166L233.487 113.792C231.643 119.087 229.562 125.049 228.865 127.041L227.596 130.665L229.125 128.411C229.966 127.171 232.664 123.034 235.122 119.218C237.58 115.401 239.69 112.327 239.813 112.386C239.935 112.446 240.296 115.392 240.615 118.933C240.934 122.474 241.554 128.785 241.993 132.958C242.781 140.435 242.772 140.55 241.378 140.934C240.601 141.149 236.009 141.186 231.176 141.018C176.331 139.104 111.852 143.327 66.49 151.803C57.9071 153.407 42.2682 158.008 41.7462 159.084C41.6127 159.36 41.8862 159.452 42.3548 159.29C44.2934 158.618 64.2884 154.749 74.7279 153.027C164.565 138.202 254.656 143.026 319.63 166.14C334.708 171.503 351.306 179.778 361.593 187.062C364.02 188.779 365.927 189.961 365.832 189.69C365.434 188.539 361.385 183.821 358.37 180.995C356.582 179.318 352.604 176.127 349.531 173.903C342.279 168.656 342.447 168.812 344.616 169.329C354.013 171.565 366.889 176.064 375.973 180.285C382.047 183.109 381.835 182.742 374.83 178.31C365.764 172.573 349.583 165.341 328.333 157.527C324.876 156.255 326.311 156.263 336.238 157.567C345.448 158.777 352.171 159.987 358.302 161.536C364.351 163.065 362.99 162.286 354.594 159.414C336.338 153.167 306.298 146.925 283.822 144.708C278.132 144.146 276.302 143.588 278.105 142.963C279.487 142.484 282.646 139.222 284.746 136.105C290.074 128.196 292.107 116.626 290.521 103.232C290.092 99.6071 289.189 96.3501 286.304 88.0259C282.242 76.3078 279.3 70.6071 273.373 62.9748C269.991 58.6206 266.183 54.3468 266.008 54.7085C265.944 54.8401 267.123 56.3282 268.627 58.0143C270.132 59.7008 272.144 62.1776 273.098 63.518L274.832 65.9555L271.228 67.2053C268.258 68.2348 267.512 68.3148 266.995 67.6599C265.417 65.6616 260.718 60.69 260.297 60.5759C260.04 60.5058 259.454 59.9277 258.994 59.2912C258.02 57.942 249.95 51.6629 248.883 51.4244C248.485 51.335 248.878 51.7762 249.758 52.4037C252.545 54.3919 256.466 57.8743 256.71 58.5776C256.839 58.9501 255.115 62.0514 252.878 65.47C250.64 68.888 248.325 72.6053 247.73 73.7306C246.765 75.558 246.548 75.7143 245.691 75.1959C244.884 74.7069 244.748 73.5836 244.832 68.0885C244.937 61.277 244.02 48.2713 243.45 48.4787C243.269 48.5443 242.866 54.3494 242.553 61.3778ZM246.227 50.0443C246.264 50.1513 246.813 50.4173 247.445 50.6351C248.487 50.9933 248.499 50.9689 247.573 50.372C246.599 49.7453 246.08 49.619 246.227 50.0443ZM9.91542 136.802C8.44677 138.773 7.3518 140.437 7.4821 140.501C7.83401 140.671 12.5627 137.207 13.9126 135.791C15.2331 134.404 14.9225 132.311 13.4794 132.872C12.9888 133.063 11.3846 134.831 9.91542 136.802ZM277.579 48.3353C294.665 62.1918 307.887 81.8286 312.167 99.7048C312.999 103.183 313.792 107.683 313.927 109.706L314.173 113.383L307.889 115.552C304.432 116.746 301.94 117.805 302.351 117.906C303.17 118.108 315.983 117.897 318.381 117.642C320.026 117.468 320.144 116.746 319.462 111.021C316.973 90.1115 301.327 65.5676 280.245 49.4994C273.547 44.3941 271.755 43.6111 277.579 48.3353ZM19.5687 142.357C19.4537 144.176 20.6897 152.926 21.0884 153.119C21.2547 153.2 21.3713 150.671 21.3483 147.5C21.3155 143.06 21.1164 141.643 20.4818 141.335C19.8479 141.027 19.6377 141.262 19.5687 142.357ZM294.101 49.3636C293.194 51.2334 294.044 54.0855 295.371 53.6254C295.871 53.4519 296.33 52.7072 296.388 51.9702C296.522 50.2951 298.084 49.4699 301.956 49.0279C305.046 48.675 316.55 49.2813 318.804 49.9157C319.933 50.234 319.71 50.3963 316.725 51.4318L313.381 52.5919L317.194 53.0058C319.876 53.2972 321.787 53.1493 323.639 52.5073C327.964 51.0076 334.498 52.5668 335.455 55.3271C335.711 56.0655 336.332 56.1209 338.494 55.5968C341.601 54.8431 344.529 55.8579 345.37 57.9805C345.727 58.8801 347.272 59.8212 350.68 61.2141C353.325 62.2949 357.016 64.0801 358.884 65.1811C360.751 66.2828 362.519 67.1906 362.812 67.1985C363.104 67.2066 363.786 66.6383 364.328 65.9358C366.209 63.4968 364.33 61.2935 357.787 58.2657C345.671 52.6588 334.728 49.5778 321.041 47.9199C310.157 46.6016 301.767 46.3558 297.762 47.2378C295.208 47.8002 294.723 48.0819 294.101 49.3636ZM27.2869 144.11C27.6041 144.558 29.0447 146.665 30.4882 148.793C31.9321 150.921 33.1823 152.521 33.2663 152.347C33.4025 152.067 31.1789 147.734 29.0274 144.086C28.5967 143.356 27.9039 142.883 27.4792 143.031C26.9914 143.2 26.9209 143.594 27.2869 144.11ZM221.19 81.8041C223.998 82.7129 224.651 83.1128 223.97 83.5062C223.403 83.8347 221.955 83.4452 219.975 82.4314C218.266 81.5574 217.015 80.7913 217.194 80.7294C217.373 80.6672 219.171 81.1507 221.19 81.8041ZM232.621 77.3361C229.723 80.5694 229.807 88.9796 232.805 95.8706C237.38 106.382 244.482 112.076 250.443 110.009C252.763 109.205 253.051 108.909 254.184 106.169C255.865 102.103 255.641 98.131 253.364 91.6318C250.203 82.6085 244.365 76.1156 238.65 75.265C236.608 74.9611 233.923 75.8834 232.621 77.3361ZM239.612 77.7063C240.33 77.8688 240.268 77.9564 239.349 78.0735C238.204 78.2204 238.254 78.3046 240.335 79.7598C249.423 86.1141 254.516 105.993 247.664 108.368C245.304 109.186 243.01 108.223 239.896 105.107C232.398 97.603 229.108 83.0845 233.973 78.9692C234.991 78.1078 238.206 77.3876 239.612 77.7063ZM307.803 65.5587C321.391 75.6607 326.461 76.7606 343.104 73.2152C351.429 71.4411 360.913 68.66 360.703 68.0539C360.347 67.0262 343.678 61.6477 342.602 62.2135C341.067 63.0214 339.442 62.9571 337.495 62.0122C335.485 61.0372 334.866 61.0185 332.333 61.8563C329.105 62.9235 324.707 62.4082 322.497 60.7034C321.53 59.9574 319.421 59.7666 313.39 59.8807C309.073 59.9623 304.576 60.1769 303.396 60.3574L301.25 60.6862L307.803 65.5587ZM208.814 94.0483C209.348 94.2095 214.175 95.1748 219.542 96.1932C224.909 97.212 229.352 98.2013 229.415 98.3913C229.478 98.5819 226.524 102.384 222.85 106.842C219.176 111.299 216.222 114.974 216.287 115.008C216.352 115.042 220.624 112.223 225.781 108.744C234.737 102.702 235.133 102.365 234.624 101.235C234.331 100.583 233.278 98.2149 232.284 95.9715L230.477 91.892L220.009 92.7655C214.251 93.2458 209.159 93.6649 208.693 93.6969C207.939 93.7486 207.953 93.7879 208.814 94.0483ZM273.651 83.7722C275.42 87.7983 276.853 91.5182 276.836 92.0387C276.811 92.8162 275.04 92.6497 266.888 91.1043C261.433 90.0701 256.957 89.0345 256.942 88.8029C256.927 88.5715 259.572 85.1545 262.82 81.2095L268.726 74.037L269.581 75.2444C270.051 75.9084 271.883 79.7458 273.651 83.7722ZM270.543 108.985L279.682 111.761L279.429 115.194C279.139 119.141 277.053 127.32 276.286 127.518C275.846 127.632 259.651 107.125 259.235 105.925C259.154 105.691 259.609 105.66 260.246 105.854C260.883 106.05 265.517 107.458 270.543 108.985ZM395.362 59.5107C395.466 59.8114 395.314 60.0049 395.023 59.9397C394.732 59.8745 390.925 61.9387 386.562 64.5273C367.079 76.0875 351.275 82.1827 332.04 85.5563C328.741 86.1345 326.109 86.7988 326.19 87.0324C326.535 88.0291 345.216 96.5495 349.752 97.7784C368.553 102.874 383.148 99.0348 397.484 85.2218C399.575 83.2066 401.172 81.5022 401.033 81.4342C400.893 81.3669 398.888 82.542 396.576 84.0467C390.911 87.7335 380.969 91.3106 376.301 91.3417C371.792 91.3712 367.485 90.2354 364.419 88.2078L361.777 86.4597L365.699 84.6917C373.668 81.0998 381.211 76.0912 387.33 70.3271C390.095 67.7229 397.007 59.2477 396.816 58.6958C396.765 58.5475 396.374 58.547 395.947 58.6948C395.521 58.8426 395.258 59.2099 395.362 59.5107ZM392.052 63.3191C387.699 67.5667 380.464 73.0494 374.75 76.4306C368.757 79.9761 359.323 84.2754 356.294 84.8422C355.001 85.0839 354.015 85.4821 354.103 85.7259C354.19 85.9705 356.001 87.3425 358.127 88.7749C361.908 91.3225 366.682 93.2251 370.628 93.7574C373.865 94.1943 373.024 94.5222 369.431 94.2245C364.405 93.8079 358.231 92.0377 351.794 89.1664L346.011 86.5875L356.761 82.5459C364.503 79.6347 368.995 77.6529 372.821 75.4601C377.655 72.689 387.439 65.8954 391.947 62.1806C395.266 59.4449 395.329 60.1213 392.052 63.3191ZM259.83 126.593C266.307 136 268.128 138.889 267.682 139.055C267.612 139.082 266.294 139.785 264.754 140.619C262.597 141.786 261.283 142.165 259.039 142.266C256.337 142.388 256.108 142.29 255.904 140.923C255.783 140.113 254.817 134.092 253.758 127.544C252.699 120.997 251.987 115.715 252.176 115.806C252.364 115.898 255.809 120.751 259.83 126.593ZM299.919 133.704C298.969 136.297 298.289 138.452 298.408 138.495C298.663 138.585 309.324 137.066 314.031 136.268C329.194 133.698 354.581 125.624 367.986 119.11C380.594 112.984 389.076 107.431 395.943 100.808C398.033 98.792 399.63 97.0864 399.491 97.0191C399.351 96.951 397.253 98.2342 394.827 99.8699C383.026 107.828 370.481 113.52 350.26 120.093C329.82 126.736 314.898 129.53 302.538 129.027C301.925 129.003 301.105 130.466 299.919 133.704Z" fill="#1F92E4"/>
</svg>
